<?xml version="1.0" encoding="utf-8"?>
<!-- Generator: Adobe Illustrator 27.1.1, SVG Export Plug-In . SVG Version: 6.00 Build 0)  -->
<svg version="1.1" id="Calque_1" xmlns="http://www.w3.org/2000/svg" xmlns:xlink="http://www.w3.org/1999/xlink" x="0px" y="0px"
	 viewBox="0 0 244.7 192.9" style="enable-background:new 0 0 244.7 192.9;" xml:space="preserve">
<style type="text/css">
	.st0{fill:#000091;}
	.st1{fill:#E1000F;}
</style>
<g>
	<g>
		<g>
			<path class="st0" d="M97.7,25.9c-11.2,0-28.9,5.1-28.9,18.6v31.3c0,13.6,17.7,18.6,28.9,18.6c8.8,0,14.7-1,21.7-3.6
				c3.2-1.2,4.9-4,4.3-7.3c-0.5-2.8-2.8-5.6-6.3-5.6c-0.7,0-1.5,0.1-2.3,0.4l-0.5,0.2c-3.6,1.2-8.4,2.8-17,2.8
				c-6.5,0-11.9-2-15.8-5.8l0,0c0-0.1,0-0.1,0-0.1v-7.9l0-0.5c0-0.1,0.1-0.2,0.2-0.2l37.9,0c3.7,0,6.6-3,6.6-6.6V44.5
				C126.7,30.9,108.9,25.9,97.7,25.9z M82,44.8C85.7,41,91.1,39,97.7,39c6.7,0,12.1,2,15.7,5.8l0,7.8l-0.1,0.9l-31.4,0l0-8.5
				L82,44.8z"/>
		</g>
		<g>
			<path class="st0" d="M215.8,25.9c-11.2,0-28.9,5.1-28.9,18.6v31.3c0,13.6,17.7,18.6,28.9,18.6c8.9,0,14.8-1,21.8-3.6
				c3.2-1.2,4.9-4,4.3-7.2c-0.5-2.8-2.8-5.6-6.3-5.6c-0.7,0-1.5,0.1-2.3,0.4l-0.5,0.2c-3.6,1.2-8.4,2.8-17,2.8
				c-6.5,0-11.9-2-15.8-5.8l0-8.3l0-0.2c0-0.1,0.1-0.2,0.2-0.2l37.9,0c3.7,0,6.6-3,6.6-6.6V44.5C244.7,30.9,227,25.9,215.8,25.9z
				 M200,44.9l0-0.2c3.7-3.8,9.1-5.8,15.7-5.8c6.7,0,12.1,2,15.7,5.8l0,8.7L200,53.6V44.9z"/>
		</g>
		<g>
			<path class="st0" d="M175.1,25.9l-15.8,0l0-6.4c0,0,0-0.3,0.1-0.5c0.1-0.2,0.2-0.3,0.4-0.5c3.8-3.5,9.1-5.3,15.3-5.3
				c3.7,0,6.6-2.9,6.6-6.5c0-3.7-2.9-6.6-6.6-6.6c-11.2,0-28.9,5.1-28.9,18.6l-0.1,7.3h-6.8c-3.7,0-6.6,2.9-6.6,6.5
				c0,3.7,2.9,6.6,6.6,6.6h6.7c0,0,0.1,0.1,0.1,0.1l0,53c0.1,0.8,0.6,1.3,1.3,1.3h10.4c0.8,0,1.3-0.6,1.4-1.4v-53
				c0,0,0.1-0.1,0.1-0.1h15.7c3.7,0,6.6-2.9,6.6-6.5C181.7,28.8,178.8,25.9,175.1,25.9z"/>
		</g>
		<g>
			<path class="st0" d="M57.8,88.2V44.5c0-13.6-17.7-18.6-28.9-18.6c-8.8,0-14.7,1-21.8,3.6c-3.2,1.2-4.9,4-4.3,7.3
				c0.5,2.8,2.8,5.6,6.3,5.6c0.7,0,1.5-0.1,2.3-0.4l0.6-0.2c3.6-1.2,8.4-2.8,17-2.8c5.7,0,10.5,1.5,14.3,4.5c0.6,0.4,1,0.8,1.2,1.1
				c0,0,0,0.1,0,0.2l0,3.4c0,0.4-1,1-3.8,1.5l-16.6,4c-0.8,0.2-1.7,0.4-2.7,0.6C12.8,56,0,58.6,0,69v9.3c0,11.9,17.1,16.1,31.8,16.1
				c6.7,0,14.5-1.2,23.7-3.5l0.2,0c0.5-0.1,1-0.2,1.5-0.8C57.8,89.4,57.8,88.4,57.8,88.2z M44.6,62.7l0,16.6c0,0.1-0.2,0.2-0.4,0.3
				c-5.3,1.1-9.6,1.7-12.4,1.7c-2.7,0-5-0.1-7.2-0.2c-6.2-0.3-10.2-1.6-11.2-3.7c-0.3-0.7-0.4-3.1-0.2-5.8l0-0.5
				c0-0.1,0.2-0.4,0.4-0.5c1.9-1.4,10.8-3.5,13.6-4.1c0.2,0,13.3-3.1,17.2-4C44.6,62.5,44.6,62.6,44.6,62.7z"/>
		</g>
	</g>
	<g>
		<g>
			<path class="st1" d="M89.2,118.1c-2.1,0-4.4,0.9-4.4,2.6v13.6c0,0.2,0.2,0.4,0.4,0.4c0.2,0,0.4-0.2,0.4-0.4v-5.1
				c1.5,0.8,3,1,3.7,1c2,0,4.2-0.9,4.2-2.6v-6.9C93.6,119,91.3,118.1,89.2,118.1z M85.7,120.3c0.8-0.9,2-1.4,3.5-1.4
				c1.5,0,2.7,0.5,3.5,1.4v7.5c-0.9,1-1.9,1.4-3.3,1.4c-1.6,0-2.9-0.5-3.7-1.4V120.3z"/>
		</g>
		<g>
			<path class="st1" d="M100.8,118.1c-2.1,0-4.4,0.9-4.4,2.6v6.9c0,1.7,2.3,2.6,4.4,2.6c2.1,0,4.4-0.9,4.4-2.6v-6.9
				C105.2,119,102.9,118.1,100.8,118.1z M97.3,120.3c0.8-0.9,2-1.4,3.5-1.4c1.5,0,2.7,0.5,3.5,1.4v7.5c-0.9,0.9-2,1.4-3.5,1.4
				c-1.5,0-2.7-0.5-3.5-1.4V120.3z"/>
		</g>
		<g>
			<path class="st1" d="M116.4,127.9c-0.9,0.9-2,1.4-3.5,1.4c-1.5,0-2.7-0.5-3.5-1.4v-9.6h-0.9v9.3c0,1.7,2.3,2.6,4.4,2.6
				c2.1,0,4.4-0.9,4.4-2.6v-9.3h-0.8V127.9z"/>
		</g>
		<g>
			<path class="st1" d="M127.3,118.4c-0.7-0.2-1.5-0.4-2.3-0.4c-2.2,0-4.4,0.8-4.4,2.3v9.6h0.9V120c0.9-0.6,1.9-1.1,3.5-1.1
				c0.7,0,1.3,0.1,2,0.3c0,0,0.1,0,0.2,0c0.2,0,0.3-0.1,0.4-0.3C127.6,118.8,127.5,118.5,127.3,118.4z"/>
		</g>
	</g>
	<g>
		<g>
			<g>
				<g>
					<path class="st1" d="M23.9,134.6c-1.8,0-3.8-0.3-4.9-0.9v-2.2c1.8,0.8,3.7,1.1,4.9,1.1c1.8,0,2.9-0.2,3.4-0.7v-1
						c-0.3-0.2-2.3-0.6-2.5-0.7l-4.6-1.1l0.7-3.2c-1.1-0.5-2-1.3-2-2.5v-2c0-2.3,3-3.2,5-3.2c1.9,0,5,0.8,5,3.2v2c0,2.3-3,3.2-5,3.2
						c-0.3,0-0.7,0-1-0.1l-0.3,1.1c1.3,0.3,2.7,0.6,4,0.9c1.2,0.3,2.7,0.8,2.7,2.3v1.1C29.4,133.9,26.3,134.6,23.9,134.6z
						 M26.8,121.3c-0.6-0.7-1.6-1.1-2.9-1.1s-2.3,0.4-2.9,1.1v2c0.6,0.7,1.6,1.1,2.9,1.1s2.3-0.5,2.9-1.1V121.3z"/>
				</g>
			</g>
		</g>
		<g>
			<g>
				<g>
					<path class="st1" d="M33.7,125.1v1.7c0.6,0.7,1.6,1.1,2.9,1.1c1.6,0,2.5-0.3,3.2-0.5c1.3-0.4,1.9,1.5,0.7,1.9
						c-1.2,0.4-2.2,0.6-3.8,0.6c-1.9,0-5-0.8-5-3.2v-5.6c0-2.3,3-3.2,5-3.2c1.9,0,5,0.8,5,3.2v3.8H33.7z M36.6,120.2
						c-1.3,0-2.3,0.4-2.9,1.1v1.7h5.9v-1.7C38.9,120.6,38,120.2,36.6,120.2z"/>
				</g>
			</g>
		</g>
		<g>
			<g>
				<g>
					<path class="st1" d="M52,129.8v-8.5c-0.6-0.7-1.6-1.1-2.9-1.1c-1.3,0-2.3,0.4-2.9,1.1v8.5h-2v-8.5c0-2.3,3-3.2,5-3.2
						c1.9,0,5,0.8,5,3.2v8.5H52z"/>
				</g>
			</g>
		</g>
		<g>
			<g>
				<g>
					<path class="st1" d="M61.6,130c-1.9,0-5-0.8-5-3.2v-5.6c0-2.3,3-3.2,5-3.2c1.1,0,2.4,0.1,3.6,0.6v2.1c-1.1-0.4-2.2-0.7-3.6-0.7
						c-1.3,0-2.3,0.4-2.9,1.1v5.6c0.6,0.7,1.6,1.1,2.9,1.1c1.4,0,2.5-0.3,3.6-0.7v2.1C64,129.9,62.7,130,61.6,130z"/>
				</g>
			</g>
		</g>
		<g>
			<g>
				<g>
					<path class="st1" d="M69.8,125.1v1.7c0.6,0.7,1.6,1.1,2.9,1.1c1.6,0,2.5-0.3,3.2-0.5c1.3-0.4,1.9,1.5,0.7,1.9
						c-1.2,0.4-2.2,0.6-3.8,0.6c-1.9,0-5-0.8-5-3.2v-5.6c0-2.3,3-3.2,5-3.2c1.9,0,5,0.8,5,3.2v3.8H69.8z M72.7,120.2
						c-1.3,0-2.3,0.4-2.9,1.1v1.7h5.9v-1.7C75,120.6,74.1,120.2,72.7,120.2z"/>
				</g>
			</g>
		</g>
	</g>
	<g>
		<g>
			<g>
				<path class="st1" d="M17.5,147.1c-1.9,0-5,0.8-5,3.2v5.6c0,2.3,3,3.2,5,3.2c1.6,0,2.6-0.2,3.8-0.6c1.3-0.5,0.6-2.4-0.7-1.9
					c-0.7,0.2-1.5,0.5-3.2,0.5c-1.3,0-2.3-0.5-2.9-1.1v-1.7h7.9v-3.8C22.5,147.9,19.4,147.1,17.5,147.1z M20.4,152h-5.9v-1.7
					c0.6-0.7,1.6-1.1,2.9-1.1c1.3,0,2.3,0.4,2.9,1.1V152z"/>
			</g>
		</g>
		<g>
			<g>
				<path class="st1" d="M30,147.1c-1.9,0-5,0.8-5,3.2v8.5h2v-8.5c0.6-0.7,1.6-1.1,2.9-1.1c1.3,0,2.3,0.4,2.9,1.1v8.5H35v-8.5
					C35,147.9,31.9,147.1,30,147.1z"/>
			</g>
		</g>
		<g>
			<g>
				<path class="st1" d="M43.7,152.3c-0.8-0.2-3.8-0.7-4.1-1v-1.1c0.6-0.7,1.6-1.1,2.9-1.1c1.5,0,2.5,0.3,3.6,0.7v-2.1
					c-1.2-0.5-2.5-0.6-3.6-0.6c-1.9,0-5,0.8-5,3.2v1.2c0,1.5,1.6,2,2.8,2.2c0.8,0.2,3.8,0.7,4.1,1v1.1c-0.6,0.7-1.6,1.1-2.9,1.1
					c-1.5,0-2.5-0.3-3.6-0.7v2.1c1.2,0.5,2.5,0.6,3.6,0.6c1.9,0,5-0.8,5-3.2v-1.2C46.5,153.1,44.9,152.6,43.7,152.3z"/>
			</g>
		</g>
		<g>
			<g>
				<path class="st1" d="M54,147.1c-1.9,0-5,0.8-5,3.2v5.6c0,2.3,3.1,3.2,5,3.2c1.6,0,2.6-0.2,3.8-0.6c1.3-0.5,0.6-2.4-0.7-1.9
					c-0.7,0.2-1.5,0.5-3.2,0.5c-1.3,0-2.3-0.5-2.9-1.1v-1.7h7.9v-3.8C58.9,147.9,55.9,147.1,54,147.1z M56.9,152H51v-1.7
					c0.6-0.7,1.6-1.1,2.9-1.1c1.3,0,2.3,0.4,2.9,1.1V152z"/>
			</g>
		</g>
		<g>
			<g>
				<path class="st1" d="M62.9,143.3c-0.7,0-1.3,0.6-1.3,1.3c0,0.7,0.6,1.3,1.3,1.3c0.7,0,1.3-0.6,1.3-1.3
					C64.1,143.8,63.5,143.3,62.9,143.3z"/>
			</g>
		</g>
		<g>
			<g>
				<path class="st1" d="M229,143.3c-0.7,0-1.3,0.6-1.3,1.3c0,0.7,0.6,1.3,1.3,1.3c0.7,0,1.3-0.6,1.3-1.3
					C230.2,143.8,229.7,143.3,229,143.3z"/>
			</g>
		</g>
		<g>
			<g>
				<path class="st1" d="M62.8,147.1c-0.6,0-1,0.5-1,1v10.7h2v-10.7C63.9,147.6,63.4,147.1,62.8,147.1z"/>
			</g>
		</g>
		<g>
			<g>
				<path class="st1" d="M74.4,157.4c-1.3-0.3-2.7-0.6-4-0.9l0.3-1.1c0.3,0,0.7,0.1,1,0.1c1.9,0,5-0.8,5-3.2v-2c0-2.3-3-3.2-5-3.2
					c-1.9,0-5,0.8-5,3.2v2c0,1.2,0.9,2.1,2,2.5L68,158l4.6,1.1c0.2,0,2.2,0.5,2.5,0.7v1c-0.6,0.6-1.6,0.7-3.4,0.7
					c-1.2,0-3.2-0.3-4.9-1.1v2.2c1.1,0.6,3.1,0.9,4.9,0.9c2.4,0,5.5-0.7,5.5-2.7v-1.1C77.2,158.2,75.6,157.7,74.4,157.4z
					 M68.8,150.3c0.6-0.7,1.6-1.1,2.9-1.1s2.3,0.4,2.9,1.1v2c-0.6,0.7-1.6,1.1-2.9,1.1s-2.3-0.5-2.9-1.1V150.3z"/>
			</g>
		</g>
		<g>
			<g>
				<path class="st1" d="M84.2,147.1c-1.9,0-5,0.8-5,3.2v8.5h2v-8.5c0.6-0.7,1.6-1.1,2.9-1.1s2.3,0.4,2.9,1.1v8.5h2.1v-8.5
					C89.2,148,86.1,147.1,84.2,147.1z"/>
			</g>
		</g>
		<g>
			<g>
				<path class="st1" d="M96.7,147.1c-1.9,0-5,0.8-5,3.2v5.6c0,2.3,3,3.2,5,3.2c1.6,0,2.6-0.2,3.8-0.6c1.3-0.5,0.6-2.4-0.7-1.9
					c-0.7,0.2-1.5,0.5-3.2,0.5c-1.3,0-2.3-0.5-2.9-1.1v-1.7h7.9v-3.8C101.7,148,98.6,147.1,96.7,147.1z M99.6,152h-5.9v-1.7
					c0.6-0.7,1.6-1.1,2.9-1.1c1.3,0,2.3,0.4,2.9,1.1V152z"/>
			</g>
		</g>
		<g>
			<g>
				<path class="st1" d="M116,147.1c-1.3,0-2.7,0.4-3.6,1.3c-0.9-0.8-2.3-1.3-3.6-1.3c-2.1,0-4.6,1.2-4.6,3.4v8.3h2v-8.5
					c0.6-0.7,1.3-1.1,2.6-1.1c1.3,0,2,0.5,2.6,1.1v8.5h2.1v-8.5c0.6-0.7,1.2-1.1,2.6-1.1c1.3,0,2,0.5,2.6,1.1v8.5h2.1v-8.3
					C120.7,148.4,118.1,147.1,116,147.1z"/>
			</g>
		</g>
		<g>
			<g>
				<path class="st1" d="M128.2,147.1c-1.9,0-5,0.8-5,3.2v5.6c0,2.3,3,3.2,5,3.2c1.6,0,2.6-0.2,3.8-0.6c1.3-0.5,0.6-2.4-0.7-1.9
					c-0.7,0.2-1.5,0.5-3.2,0.5c-1.3,0-2.3-0.5-2.9-1.1v-1.7h7.9v-3.8C133.2,148,130.1,147.1,128.2,147.1z M131.1,152h-5.9v-1.7
					c0.6-0.7,1.6-1.1,2.9-1.1c1.3,0,2.3,0.4,2.9,1.1V152z"/>
			</g>
		</g>
		<g>
			<g>
				<path class="st1" d="M140.7,147.1c-1.9,0-5,0.8-5,3.2v8.5h2v-8.5c0.6-0.7,1.6-1.1,2.9-1.1s2.3,0.4,2.9,1.1v8.5h2.1v-8.5
					C145.7,148,142.6,147.1,140.7,147.1z"/>
			</g>
		</g>
		<g>
			<g>
				<path class="st1" d="M151.6,143.9c0-0.6-0.4-1-1-1c-0.6,0-1,0.5-1,1v3.4h-0.3c-0.6,0-1,0.5-1,1c0,0.6,0.5,1,1,1h0.3v6.3
					c0,2.3,3,3.2,5,3.2c0.6,0,1-0.4,1-1c0-0.6-0.5-1-1-1c-1.3,0-2.3-0.5-2.9-1.1v-6.3h4v-2h-4V143.9z"/>
			</g>
		</g>
		<g>
			<g>
				<path class="st1" d="M168.3,144.6c0.6,0,1-0.4,1-1c0-0.6-0.5-1-1-1c-1.9,0-5,0.8-5,3.2v1.6h-1.4v2h1.4v9.5h2v-9.5h2.9
					c0.6,0,1-0.4,1-1c0-0.6-0.5-1-1-1h-2.9v-1.6C166,145.1,167,144.6,168.3,144.6z"/>
			</g>
		</g>
		<g>
			<g>
				<path class="st1" d="M175.5,147.1c-2,0-5,0.7-5,2.9v8.8h2V150c0.8-0.5,1.6-0.9,2.9-0.9c0.7,0,1.3,0.1,1.8,0.3
					c0.5,0.2,1.1-0.1,1.3-0.6C179.1,147.3,176.3,147.1,175.5,147.1z"/>
			</g>
		</g>
		<g>
			<g>
				<path class="st1" d="M184,147.1c-1,0-2.9,0.2-3.9,0.7v2.1c0.9-0.3,2.5-0.7,3.9-0.7c1.3,0,2.3,0.4,2.9,1.1v0.9l-3.8,0.9
					c-1.4,0.3-4.1,0.7-4.1,2.6v1.6c0,2,3.1,2.7,5.5,2.7c1.6,0,3.2-0.4,4.5-0.7v-8C189,148,185.9,147.1,184,147.1z M187,156.6
					c-0.9,0.2-1.8,0.3-2.4,0.3c-1.8,0-2.9-0.2-3.5-0.8v-1.5c0.3-0.2,2.3-0.6,2.5-0.7l3.3-0.8V156.6z"/>
			</g>
		</g>
		<g>
			<g>
				<path class="st1" d="M196.5,147.1c-1.9,0-5,0.8-5,3.2v8.5h2v-8.5c0.6-0.7,1.6-1.1,2.9-1.1c1.3,0,2.3,0.4,2.9,1.1v8.5h2.1v-8.5
					C201.5,148,198.4,147.1,196.5,147.1z"/>
			</g>
		</g>
		<g>
			<g>
				<path class="st1" d="M204,150.3v5.6c0,1.4,1.2,2.3,2.5,2.8l-0.5,2l3.1,0.7c0.7,0.2,1.1,0.3,1.2,0.3v0.3
					c-0.3,0.2-0.8,0.3-1.8,0.3c-0.7,0-1.8-0.2-2.9-0.6l-0.3-0.1v1.8l0.1,0.1c0.7,0.3,1.9,0.6,3.1,0.6c1.6,0,3.5-0.5,3.5-1.9v-0.7
					c0-1.2-1.3-1.5-1.8-1.6c-0.5-0.1-1.1-0.3-1.7-0.4l-0.5-0.1l0.1-0.4c0.3,0,0.5,0,0.7,0c1.1,0,2.4-0.1,3.6-0.6v-2.1
					c-1.1,0.4-2.2,0.7-3.6,0.7c-1.3,0-2.3-0.5-2.9-1.1v-5.6c0.6-0.7,1.6-1.1,2.9-1.1c1.4,0,2.5,0.3,3.6,0.7v-2.1
					c-1.2-0.5-2.5-0.6-3.6-0.6C207.1,147.1,204,148,204,150.3z"/>
			</g>
		</g>
		<g>
			<g>
				<path class="st1" d="M220.1,147.1c-1,0-2.9,0.2-3.9,0.7v2.1c0.9-0.3,2.5-0.7,3.9-0.7c1.3,0,2.3,0.4,2.9,1.1v0.9l-3.8,0.9
					c-1.4,0.3-4.1,0.7-4.1,2.6v1.6c0,2,3.1,2.7,5.5,2.7c1.6,0,3.2-0.4,4.5-0.7v-8C225.1,148,222,147.1,220.1,147.1z M223,156.6
					c-0.9,0.2-1.8,0.3-2.4,0.3c-1.8,0-2.9-0.2-3.5-0.8v-1.5c0.3-0.2,2.3-0.6,2.5-0.7l3.3-0.8V156.6z"/>
			</g>
		</g>
		<g>
			<g>
				<path class="st1" d="M229,147.1c-0.6,0-1,0.5-1,1v10.7h2v-10.7C230,147.6,229.5,147.1,229,147.1z"/>
			</g>
		</g>
		<g>
			<g>
				<path class="st1" d="M239,152.4c-0.8-0.2-3.8-0.7-4.1-1v-1.1c0.6-0.7,1.6-1.1,2.9-1.1c1.5,0,2.5,0.3,3.6,0.7v-2.1
					c-1.2-0.5-2.5-0.6-3.6-0.6c-1.9,0-5,0.8-5,3.2v1.2c0,1.5,1.6,2,2.8,2.2c0.8,0.2,3.8,0.7,4.1,1v1.1c-0.6,0.7-1.6,1.1-2.9,1.1
					c-1.5,0-2.5-0.3-3.6-0.7v2.1c1.2,0.5,2.5,0.6,3.6,0.6c1.9,0,5-0.8,5-3.2v-1.2C241.8,153.1,240.2,152.6,239,152.4z"/>
			</g>
		</g>
		<g>
			<g>
				<path class="st1" d="M4.6,142.3c-0.2,0-0.4,0.2-0.4,0.4v16.2H5v-16.2C5,142.4,4.8,142.3,4.6,142.3z"/>
			</g>
			<g>
				<path class="st1" d="M8.8,142.4l-1.3,4.4c0,0.1,0,0.2,0.1,0.3c0.1,0.1,0.1,0.1,0.2,0.2l0.1,0h0c0.2,0,0.3-0.1,0.4-0.3l1.8-4.5
					l0-0.1H8.8z"/>
			</g>
		</g>
	</g>
	<g>
		<g>
			<g>
				<path class="st1" d="M34.1,176.5c-1.9,0-5,0.8-5,3.2v5.5c0,2.3,3,3.2,5,3.2c1.6,0,2.6-0.2,3.8-0.6c1.3-0.5,0.6-2.4-0.7-1.9
					c-0.7,0.2-1.5,0.5-3.2,0.5c-1.3,0-2.3-0.5-2.9-1.1v-1.7h7.9v-3.8C39.1,177.3,36.1,176.5,34.1,176.5z M37.1,181.4h-5.9v-1.7
					c0.6-0.7,1.6-1.1,2.9-1.1c1.3,0,2.3,0.4,2.9,1.1V181.4z"/>
			</g>
		</g>
		<g>
			<g>
				<path class="st1" d="M34,175.3c0.2,0,0.4,0,0.7-0.4c0.3-0.4,2.4-3,2.4-3h-2.7l-1.2,1.9c-0.2,0.3-0.2,0.6-0.1,0.9
					C33.2,175.1,33.6,175.3,34,175.3z"/>
			</g>
		</g>
		<g>
			<g>
				<path class="st1" d="M44.6,173.2c0-0.6-0.4-1-1-1c-0.6,0-1,0.5-1,1v3.5h-0.3c-0.6,0-1,0.5-1,1c0,0.6,0.5,1,1,1h0.3v6.3
					c0,2.3,3,3.2,5,3.2c0.6,0,1-0.4,1-1c0-0.6-0.5-1-1-1c-1.3,0-2.3-0.5-2.9-1.1v-6.3h4v-2h-4V173.2z"/>
			</g>
		</g>
		<g>
			<g>
				<path class="st1" d="M55.9,176.5c-2,0-5,0.7-5,2.9v8.8h2v-8.8c0.8-0.5,1.6-0.9,2.9-0.9c0.7,0,1.3,0.1,1.8,0.3
					c0.5,0.2,1.1-0.1,1.3-0.6C59.6,176.6,56.8,176.5,55.9,176.5z"/>
			</g>
		</g>
		<g>
			<g>
				<path class="st1" d="M65,176.5c-1,0-2.9,0.2-3.9,0.7v2.1c0.9-0.3,2.5-0.7,3.9-0.7c1.3,0,2.3,0.4,2.9,1.1v0.9l-3.8,0.9
					c-1.4,0.3-4.1,0.7-4.1,2.6v1.6c0,2,3.1,2.7,5.5,2.7c1.6,0,3.2-0.4,4.5-0.7v-8C70,177.3,67,176.5,65,176.5z M68,186
					c-0.9,0.2-1.8,0.3-2.4,0.3c-1.8,0-2.9-0.2-3.4-0.8v-1.5c0.3-0.2,2.3-0.6,2.5-0.7l3.3-0.8V186z"/>
			</g>
		</g>
		<g>
			<g>
				<path class="st1" d="M77.5,176.5c-1.9,0-5,0.8-5,3.2v8.5h2v-8.5c0.6-0.7,1.6-1.1,2.9-1.1c1.3,0,2.3,0.4,2.9,1.1v8.5h2.1v-8.5
					C82.5,177.3,79.5,176.5,77.5,176.5z"/>
			</g>
		</g>
		<g>
			<g>
				<path class="st1" d="M92.7,186.8c-1.3-0.3-2.7-0.6-4-0.9l0.3-1.1c0.3,0,0.7,0.1,1,0.1c1.9,0,5-0.8,5-3.2v-2c0-2.3-3-3.2-5-3.2
					c-1.9,0-5,0.8-5,3.2v2c0,1.2,0.9,2.1,2,2.5l-0.7,3.2l4.6,1c0.2,0,2.2,0.5,2.5,0.7v1c-0.6,0.6-1.6,0.7-3.4,0.7
					c-1.2,0-3.2-0.3-4.9-1v2.2c1.1,0.6,3.1,0.9,4.9,0.9c2.4,0,5.5-0.7,5.5-2.7v-1.1C95.5,187.6,93.9,187.1,92.7,186.8z M87.1,179.7
					c0.6-0.7,1.6-1.1,2.9-1.1c1.3,0,2.3,0.4,2.9,1.1v2c-0.6,0.7-1.6,1.1-2.9,1.1c-1.3,0-2.3-0.5-2.9-1.1V179.7z"/>
			</g>
		</g>
		<g>
			<g>
				<path class="st1" d="M102.3,176.5c-1.9,0-5,0.8-5,3.2v5.5c0,2.3,3,3.2,5,3.2c1.6,0,2.6-0.2,3.8-0.6c1.3-0.5,0.6-2.4-0.7-1.9
					c-0.7,0.2-1.5,0.5-3.2,0.5c-1.3,0-2.3-0.5-2.9-1.1v-1.7h7.9v-3.8C107.3,177.3,104.3,176.5,102.3,176.5z M105.2,181.4h-5.9v-1.7
					c0.6-0.7,1.6-1.1,2.9-1.1s2.3,0.4,2.9,1.1V181.4z"/>
			</g>
		</g>
		<g>
			<g>
				<path class="st1" d="M115.5,176.5c-2,0-5,0.7-5,2.9v8.8h2v-8.8c0.8-0.5,1.6-0.9,2.9-0.9c0.7,0,1.3,0.1,1.8,0.3
					c0.5,0.2,1.1-0.1,1.3-0.6C119.1,176.6,116.3,176.5,115.5,176.5z"/>
			</g>
		</g>
		<g>
			<g>
				<path class="st1" d="M21.2,171.7c-0.2,0-0.4,0.2-0.4,0.4v16.2h0.9v-16.2C21.7,171.9,21.5,171.7,21.2,171.7z"/>
			</g>
			<g>
				<path class="st1" d="M8.6,174.9c0.1,0,0.2,0,0.3-0.1c0.1-0.1,0.2-0.2,0.2-0.3c0-0.1,0-0.2-0.1-0.3l-1.7-2.4l0,0H5.6l2.6,2.9
					C8.3,174.8,8.4,174.9,8.6,174.9z"/>
			</g>
			<g>
				<path class="st1" d="M7.9,176.4c-1,0-2.5,0.1-3.3,0.4l-0.1,0v0.9l0.1,0c0.5-0.2,1.9-0.5,3.2-0.5c1.5,0,2.7,0.5,3.5,1.4v2.3
					l-4.2,1c-0.2,0-0.4,0.1-0.6,0.1c-0.3,0.1-0.5,0.1-0.8,0.2l-0.2,0c-0.4,0.1-0.7,0.2-1,0.3c-0.7,0.3-1.1,0.7-1.1,1.3v2.3
					c0,1.4,1.7,2.1,4.9,2.1c1.5,0,3-0.3,3.8-0.5l0.1,0V179C12.3,177.3,10,176.4,7.9,176.4z M11.4,181.9v5.2c-1.3,0.3-2.3,0.4-3,0.4
					c-1.7,0-3.1-0.1-4-1.1v-2.6c0.2-0.3,0.4-0.4,0.9-0.6c0.2-0.1,0.5-0.1,0.8-0.2l0,0c0.3-0.1,0.8-0.2,1.2-0.3L11.4,181.9z"/>
			</g>
			<g>
				<path class="st1" d="M25.9,171.8l-1.3,4.4c0,0.1,0,0.2,0,0.3c0.1,0.1,0.1,0.1,0.2,0.2l0.1,0h0c0.2,0,0.3-0.1,0.4-0.3l1.8-4.5
					l0-0.1H25.9z"/>
			</g>
		</g>
	</g>
	<g>
		<g>
			<g>
				<path class="st1" d="M17.3,128.7l-4.4-12.4l0-0.1l0,0l0-0.1c-0.1-0.4-0.4-0.7-0.7-1c-0.5-0.4-1-0.6-1.7-0.6
					c-0.6,0-1.2,0.2-1.7,0.6c-0.3,0.2-0.6,0.6-0.7,1l0,0.1l0,0l0,0.1l-4.4,12.4c-0.4,1.2,1.4,1.9,1.9,0.7l1.4-3.9h3.5h0.3H14
					l1.4,3.9C15.8,130.6,17.7,129.9,17.3,128.7z M7.5,123.4l0.9-2.7l1.1-3.2c0.2-0.4,0.5-0.8,0.8-0.8c0.3,0,0.7,0.4,0.8,0.8l0.8,2.2
					l1.3,3.6H7.5z"/>
			</g>
		</g>
	</g>
</g>
</svg>
