<?xml version="1.0" encoding="utf-8"?>
<!-- Generator: $$$/GeneralStr/196=Adobe Illustrator 27.6.0, SVG Export Plug-In . SVG Version: 6.00 Build 0)  -->
<svg version="1.1" id="Calque_1" xmlns="http://www.w3.org/2000/svg" xmlns:xlink="http://www.w3.org/1999/xlink" x="0px" y="0px"
	 viewBox="0 0 645.4 414.65" style="enable-background:new 0 0 645.4 414.65;" xml:space="preserve">
<style type="text/css">
	.st0{fill:#0D2F80;}
	.st1{fill:#FF0000;}
</style>
<g>
	<path class="st0" d="M46.21,325.42v-28.74h3.64v25.5h16.03v3.24H46.21z"/>
	<path class="st0" d="M62.52,305.14l0.81-4.65h-1.21v-4.61h3.36v4.61l-1.21,4.65H62.52z"/>
	<path class="st0" d="M88.14,296.68h3.08l11.74,28.74h-3.89L95.84,317H83.48l-3.24,8.42h-3.89L88.14,296.68z M94.76,314.16
		l-5.08-13.28l-5.1,13.28H94.76z"/>
	<path class="st0" d="M114.04,325.82c-1.43,0-2.75-0.29-3.95-0.87c-1.2-0.58-2.23-1.38-3.1-2.39c-0.86-1.01-1.53-2.17-2-3.46
		c-0.47-1.3-0.71-2.64-0.71-4.05c0-1.48,0.24-2.89,0.71-4.21c0.47-1.32,1.15-2.49,2.02-3.5c0.88-1.01,1.91-1.81,3.1-2.39
		c1.19-0.58,2.51-0.87,3.97-0.87c1.75,0,3.28,0.42,4.59,1.27c1.31,0.85,2.41,1.94,3.3,3.26v-4.21h3.16v20.8
		c0,1.99-0.48,3.67-1.44,5.04c-0.96,1.37-2.25,2.41-3.89,3.12c-1.63,0.71-3.45,1.07-5.44,1.07c-2.37,0-4.32-0.42-5.83-1.26
		c-1.51-0.84-2.77-1.97-3.76-3.4l2.06-1.82c0.84,1.24,1.92,2.17,3.26,2.79c1.34,0.62,2.76,0.93,4.27,0.93c1.3,0,2.49-0.23,3.58-0.69
		s1.97-1.16,2.63-2.11c0.66-0.94,0.99-2.13,0.99-3.56v-3.72c-0.78,1.29-1.86,2.32-3.22,3.08
		C116.99,325.44,115.55,325.82,114.04,325.82z M115.13,322.91c0.75,0,1.48-0.13,2.19-0.4c0.7-0.27,1.35-0.63,1.94-1.07
		c0.59-0.45,1.09-0.95,1.5-1.52s0.67-1.15,0.81-1.74v-6.07c-0.38-0.97-0.92-1.83-1.62-2.57c-0.7-0.74-1.5-1.32-2.39-1.74
		c-0.89-0.42-1.81-0.63-2.75-0.63c-1.08,0-2.04,0.23-2.89,0.69c-0.85,0.46-1.57,1.07-2.17,1.84c-0.59,0.77-1.05,1.63-1.38,2.57
		c-0.32,0.94-0.49,1.9-0.49,2.87c0,1.05,0.19,2.04,0.57,2.97c0.38,0.93,0.89,1.76,1.54,2.49c0.65,0.73,1.42,1.3,2.31,1.7
		C113.19,322.7,114.14,322.91,115.13,322.91z"/>
	<path class="st0" d="M140.23,325.82c-1.59,0-3.04-0.29-4.35-0.86c-1.31-0.58-2.44-1.37-3.4-2.37c-0.96-1-1.7-2.16-2.23-3.47
		c-0.53-1.31-0.79-2.71-0.79-4.18c0-1.98,0.46-3.79,1.38-5.42c0.92-1.63,2.19-2.95,3.82-3.94c1.63-0.99,3.5-1.49,5.61-1.49
		c2.13,0,3.99,0.5,5.57,1.51c1.58,1.01,2.81,2.32,3.68,3.94c0.88,1.62,1.32,3.37,1.32,5.25c0,0.27-0.01,0.53-0.02,0.78
		c-0.01,0.25-0.03,0.45-0.06,0.58h-17.53c0.11,1.36,0.49,2.57,1.15,3.62c0.66,1.05,1.52,1.88,2.57,2.48c1.05,0.6,2.19,0.9,3.4,0.9
		c1.29,0,2.52-0.32,3.66-0.97c1.15-0.65,1.94-1.5,2.37-2.55l3.08,0.85c-0.46,1.03-1.14,1.94-2.04,2.75c-0.9,0.81-1.97,1.44-3.2,1.9
		C142.99,325.59,141.66,325.82,140.23,325.82z M133.1,313.68h14.41c-0.11-1.36-0.5-2.56-1.17-3.6c-0.68-1.04-1.54-1.85-2.59-2.44
		c-1.05-0.59-2.21-0.88-3.48-0.88c-1.24,0-2.39,0.29-3.44,0.88c-1.05,0.59-1.91,1.4-2.57,2.44
		C133.6,311.12,133.21,312.32,133.1,313.68z"/>
	<path class="st0" d="M173.13,325.42h-3.56V313.7c0-2.22-0.34-3.84-1.03-4.87c-0.69-1.03-1.73-1.54-3.14-1.54
		c-0.97,0-1.94,0.24-2.89,0.72c-0.96,0.48-1.81,1.13-2.55,1.94c-0.74,0.81-1.27,1.75-1.6,2.82v12.65h-3.56v-21.01h3.24v4.54
		c0.57-0.99,1.3-1.85,2.19-2.57c0.89-0.72,1.9-1.29,3.04-1.69c1.13-0.4,2.32-0.6,3.56-0.6c1.21,0,2.23,0.22,3.06,0.66
		c0.82,0.44,1.47,1.06,1.94,1.85c0.47,0.79,0.81,1.72,1.01,2.79c0.2,1.07,0.3,2.24,0.3,3.49V325.42z"/>
	<path class="st0" d="M188.03,325.82c-1.59,0-3.04-0.29-4.35-0.86c-1.31-0.58-2.44-1.37-3.4-2.39c-0.96-1.02-1.7-2.18-2.23-3.49
		c-0.53-1.31-0.79-2.71-0.79-4.18c0-1.98,0.45-3.79,1.34-5.42c0.89-1.63,2.15-2.94,3.76-3.92c1.62-0.98,3.49-1.47,5.63-1.47
		c2.08,0,3.89,0.47,5.44,1.4c1.55,0.93,2.71,2.18,3.46,3.74l-3.48,1.09c-0.54-1-1.29-1.77-2.27-2.33c-0.97-0.55-2.05-0.83-3.24-0.83
		c-1.29,0-2.48,0.33-3.54,1c-1.07,0.67-1.91,1.58-2.53,2.74c-0.62,1.16-0.93,2.49-0.93,3.99c0,1.47,0.32,2.8,0.95,3.99
		c0.63,1.19,1.48,2.13,2.55,2.82c1.07,0.69,2.25,1.04,3.54,1.04c0.84,0,1.64-0.15,2.41-0.45c0.77-0.3,1.44-0.69,2.02-1.19
		c0.58-0.5,0.98-1.05,1.19-1.64l3.48,1.05c-0.43,1.03-1.09,1.94-1.96,2.73c-0.88,0.8-1.92,1.42-3.12,1.88
		C190.77,325.59,189.46,325.82,188.03,325.82z"/>
	<path class="st0" d="M210.25,325.82c-1.59,0-3.04-0.29-4.35-0.86c-1.31-0.58-2.44-1.37-3.4-2.37c-0.96-1-1.7-2.16-2.23-3.47
		s-0.79-2.71-0.79-4.18c0-1.98,0.46-3.79,1.38-5.42c0.92-1.63,2.19-2.95,3.82-3.94c1.63-0.99,3.5-1.49,5.61-1.49
		c2.13,0,3.99,0.5,5.57,1.51c1.58,1.01,2.81,2.32,3.68,3.94c0.88,1.62,1.32,3.37,1.32,5.25c0,0.27-0.01,0.53-0.02,0.78
		c-0.01,0.25-0.03,0.45-0.06,0.58h-17.53c0.11,1.36,0.49,2.57,1.15,3.62c0.66,1.05,1.52,1.88,2.57,2.48c1.05,0.6,2.19,0.9,3.4,0.9
		c1.29,0,2.51-0.32,3.66-0.97c1.15-0.65,1.94-1.5,2.37-2.55l3.08,0.85c-0.46,1.03-1.14,1.94-2.04,2.75c-0.9,0.81-1.97,1.44-3.2,1.9
		C213.01,325.59,211.68,325.82,210.25,325.82z M203.12,313.68h14.41c-0.11-1.36-0.5-2.56-1.17-3.6c-0.68-1.04-1.54-1.85-2.59-2.44
		c-1.05-0.59-2.21-0.88-3.48-0.88c-1.24,0-2.39,0.29-3.44,0.88c-1.05,0.59-1.91,1.4-2.57,2.44
		C203.62,311.12,203.23,312.32,203.12,313.68z"/>
	<path class="st0" d="M233.68,314.97c0-1.98,0.41-3.8,1.23-5.44c0.82-1.65,1.96-2.97,3.4-3.96c1.44-0.99,3.1-1.49,4.96-1.49
		c1.7,0,3.22,0.45,4.57,1.34c1.35,0.89,2.4,1.97,3.16,3.24v-12.79h3.56v25.5c0,0.43,0.09,0.75,0.26,0.95
		c0.18,0.2,0.47,0.32,0.87,0.34v2.75c-0.68,0.11-1.2,0.16-1.58,0.16c-0.7,0-1.32-0.24-1.84-0.73c-0.53-0.49-0.79-1.03-0.79-1.62
		v-1.78c-0.84,1.35-1.96,2.42-3.36,3.2c-1.4,0.78-2.86,1.17-4.37,1.17c-1.46,0-2.8-0.29-4.03-0.86c-1.23-0.58-2.29-1.37-3.2-2.39
		c-0.9-1.02-1.61-2.18-2.1-3.48C233.93,317.79,233.68,316.42,233.68,314.97z M251,318.06v-6.01c-0.32-0.91-0.85-1.73-1.58-2.46
		c-0.73-0.73-1.55-1.32-2.45-1.76s-1.8-0.66-2.69-0.66c-1.05,0-2,0.22-2.85,0.66s-1.58,1.03-2.19,1.76c-0.61,0.74-1.07,1.57-1.4,2.5
		c-0.32,0.93-0.49,1.91-0.49,2.92c0,1.04,0.18,2.03,0.55,2.96c0.36,0.93,0.88,1.76,1.54,2.48c0.66,0.72,1.43,1.28,2.31,1.68
		c0.88,0.4,1.83,0.6,2.85,0.6c0.65,0,1.32-0.12,2-0.36c0.69-0.24,1.34-0.57,1.96-1c0.62-0.43,1.15-0.93,1.58-1.5
		C250.58,319.31,250.87,318.7,251,318.06z"/>
	<path class="st0" d="M269.86,325.82c-1.59,0-3.04-0.29-4.35-0.86c-1.31-0.58-2.44-1.37-3.4-2.37c-0.96-1-1.7-2.16-2.23-3.47
		c-0.53-1.31-0.79-2.71-0.79-4.18c0-1.98,0.46-3.79,1.38-5.42c0.92-1.63,2.19-2.95,3.82-3.94c1.63-0.99,3.5-1.49,5.61-1.49
		c2.13,0,3.99,0.5,5.57,1.51c1.58,1.01,2.81,2.32,3.68,3.94c0.88,1.62,1.32,3.37,1.32,5.25c0,0.27-0.01,0.53-0.02,0.78
		c-0.01,0.25-0.03,0.45-0.06,0.58h-17.53c0.11,1.36,0.49,2.57,1.15,3.62c0.66,1.05,1.52,1.88,2.57,2.48c1.05,0.6,2.19,0.9,3.4,0.9
		c1.29,0,2.52-0.32,3.66-0.97c1.15-0.65,1.94-1.5,2.37-2.55l3.08,0.85c-0.46,1.03-1.14,1.94-2.04,2.75c-0.9,0.81-1.97,1.44-3.2,1.9
		C272.62,325.59,271.29,325.82,269.86,325.82z M262.74,313.68h14.41c-0.11-1.36-0.5-2.56-1.17-3.6c-0.68-1.04-1.54-1.85-2.59-2.44
		c-1.05-0.59-2.21-0.88-3.48-0.88c-1.24,0-2.39,0.29-3.44,0.88c-1.05,0.59-1.91,1.4-2.57,2.44
		C263.23,311.12,262.85,312.32,262.74,313.68z"/>
	<path class="st0" d="M293.3,314.97c0-1.98,0.41-3.8,1.23-5.44c0.82-1.65,1.96-2.97,3.4-3.96c1.44-0.99,3.1-1.49,4.96-1.49
		c1.7,0,3.22,0.45,4.57,1.34c1.35,0.89,2.4,1.97,3.16,3.24v-12.79h3.56v25.5c0,0.43,0.09,0.75,0.26,0.95
		c0.18,0.2,0.47,0.32,0.87,0.34v2.75c-0.68,0.11-1.2,0.16-1.58,0.16c-0.7,0-1.32-0.24-1.84-0.73c-0.53-0.49-0.79-1.03-0.79-1.62
		v-1.78c-0.84,1.35-1.96,2.42-3.36,3.2c-1.4,0.78-2.86,1.17-4.37,1.17c-1.46,0-2.8-0.29-4.03-0.86c-1.23-0.58-2.29-1.37-3.2-2.39
		c-0.9-1.02-1.61-2.18-2.1-3.48C293.55,317.79,293.3,316.42,293.3,314.97z M310.62,318.06v-6.01c-0.32-0.91-0.85-1.73-1.58-2.46
		c-0.73-0.73-1.55-1.32-2.45-1.76c-0.9-0.44-1.8-0.66-2.69-0.66c-1.05,0-2,0.22-2.85,0.66c-0.85,0.44-1.58,1.03-2.19,1.76
		c-0.61,0.74-1.07,1.57-1.4,2.5c-0.32,0.93-0.49,1.91-0.49,2.92c0,1.04,0.18,2.03,0.55,2.96c0.36,0.93,0.88,1.76,1.54,2.48
		c0.66,0.72,1.43,1.28,2.31,1.68c0.88,0.4,1.83,0.6,2.85,0.6c0.65,0,1.32-0.12,2-0.36c0.69-0.24,1.34-0.57,1.96-1
		c0.62-0.43,1.15-0.93,1.58-1.5C310.2,319.31,310.49,318.7,310.62,318.06z"/>
	<path class="st0" d="M329.48,325.82c-1.59,0-3.04-0.29-4.35-0.86c-1.31-0.58-2.44-1.37-3.4-2.37c-0.96-1-1.7-2.16-2.23-3.47
		c-0.53-1.31-0.79-2.71-0.79-4.18c0-1.98,0.46-3.79,1.38-5.42c0.92-1.63,2.19-2.95,3.82-3.94c1.63-0.99,3.5-1.49,5.61-1.49
		c2.13,0,3.99,0.5,5.57,1.51c1.58,1.01,2.81,2.32,3.68,3.94c0.88,1.62,1.32,3.37,1.32,5.25c0,0.27-0.01,0.53-0.02,0.78
		c-0.01,0.25-0.03,0.45-0.06,0.58h-17.53c0.11,1.36,0.49,2.57,1.15,3.62s1.52,1.88,2.57,2.48c1.05,0.6,2.19,0.9,3.4,0.9
		c1.29,0,2.52-0.32,3.66-0.97c1.15-0.65,1.94-1.5,2.37-2.55l3.08,0.85c-0.46,1.03-1.14,1.94-2.04,2.75c-0.9,0.81-1.97,1.44-3.2,1.9
		C332.24,325.59,330.91,325.82,329.48,325.82z M322.36,313.68h14.41c-0.11-1.36-0.5-2.56-1.17-3.6c-0.68-1.04-1.54-1.85-2.59-2.44
		c-1.05-0.59-2.21-0.88-3.48-0.88c-1.24,0-2.39,0.29-3.44,0.88c-1.05,0.59-1.91,1.4-2.57,2.44
		C322.85,311.12,322.47,312.32,322.36,313.68z M330.61,300.77l-2.35-0.81l2.35-4.09h3.56L330.61,300.77z"/>
	<path class="st0" d="M349.56,325.42l-8.3-21.01h3.72l6.64,17.63l6.64-17.63h3.48l-8.3,21.01H349.56z"/>
	<path class="st0" d="M373.92,325.82c-1.59,0-3.04-0.29-4.35-0.86c-1.31-0.58-2.44-1.37-3.4-2.37c-0.96-1-1.7-2.16-2.23-3.47
		c-0.53-1.31-0.79-2.71-0.79-4.18c0-1.98,0.46-3.79,1.38-5.42c0.92-1.63,2.19-2.95,3.82-3.94c1.63-0.99,3.5-1.49,5.61-1.49
		c2.13,0,3.99,0.5,5.57,1.51c1.58,1.01,2.81,2.32,3.68,3.94c0.88,1.62,1.32,3.37,1.32,5.25c0,0.27-0.01,0.53-0.02,0.78
		c-0.01,0.25-0.03,0.45-0.06,0.58h-17.53c0.11,1.36,0.49,2.57,1.15,3.62s1.52,1.88,2.57,2.48c1.05,0.6,2.19,0.9,3.4,0.9
		c1.29,0,2.52-0.32,3.66-0.97c1.15-0.65,1.94-1.5,2.37-2.55l3.08,0.85c-0.46,1.03-1.14,1.94-2.04,2.75c-0.9,0.81-1.97,1.44-3.2,1.9
		C376.68,325.59,375.35,325.82,373.92,325.82z M366.8,313.68h14.41c-0.11-1.36-0.5-2.56-1.17-3.6c-0.68-1.04-1.54-1.85-2.59-2.44
		c-1.05-0.59-2.21-0.88-3.48-0.88c-1.24,0-2.39,0.29-3.44,0.88c-1.05,0.59-1.91,1.4-2.57,2.44
		C367.29,311.12,366.91,312.32,366.8,313.68z"/>
	<path class="st0" d="M388.57,295.87h3.56v24.19c0,1.17,0.16,1.88,0.49,2.15c0.32,0.27,0.71,0.41,1.17,0.41
		c0.57,0,1.11-0.06,1.62-0.18c0.51-0.12,0.94-0.25,1.29-0.38l0.57,2.91c-0.59,0.24-1.29,0.45-2.1,0.61
		c-0.81,0.16-1.52,0.24-2.14,0.24c-1.38,0-2.46-0.39-3.26-1.18s-1.19-1.88-1.19-3.29V295.87z"/>
	<path class="st0" d="M409.29,325.82c-1.59,0-3.04-0.29-4.33-0.86c-1.29-0.58-2.42-1.37-3.36-2.37c-0.94-1-1.67-2.16-2.19-3.47
		c-0.51-1.31-0.77-2.69-0.77-4.14c0-1.47,0.26-2.87,0.77-4.18c0.51-1.31,1.24-2.47,2.19-3.47c0.94-1,2.07-1.79,3.38-2.37
		c1.31-0.58,2.76-0.86,4.35-0.86c1.56,0,2.99,0.29,4.29,0.86c1.29,0.58,2.42,1.37,3.38,2.37c0.96,1,1.69,2.16,2.21,3.47
		c0.51,1.31,0.77,2.71,0.77,4.18c0,1.45-0.26,2.83-0.77,4.14c-0.51,1.31-1.24,2.47-2.19,3.47c-0.94,1-2.07,1.79-3.38,2.37
		C412.34,325.53,410.89,325.82,409.29,325.82z M402.29,315.01c0,1.44,0.32,2.75,0.95,3.93c0.63,1.17,1.48,2.1,2.53,2.78
		c1.05,0.68,2.23,1.02,3.52,1.02c1.3,0,2.48-0.35,3.54-1.04c1.07-0.69,1.92-1.64,2.55-2.82c0.63-1.19,0.95-2.5,0.95-3.95
		c0-1.44-0.32-2.75-0.95-3.93c-0.63-1.17-1.48-2.11-2.55-2.8c-1.07-0.69-2.25-1.04-3.54-1.04c-1.29,0-2.47,0.35-3.52,1.06
		c-1.05,0.71-1.9,1.65-2.53,2.82C402.61,312.22,402.29,313.55,402.29,315.01z"/>
	<path class="st0" d="M435.68,325.82c-1.73,0-3.27-0.43-4.61-1.29c-1.35-0.86-2.42-1.94-3.2-3.25v12.76h-3.56v-29.63h3.16v3.97
		c0.84-1.28,1.93-2.32,3.28-3.11c1.35-0.79,2.82-1.18,4.41-1.18c1.46,0,2.79,0.29,4.01,0.88s2.27,1.39,3.16,2.41
		c0.89,1.02,1.58,2.18,2.08,3.48c0.5,1.3,0.75,2.66,0.75,4.08c0,1.98-0.4,3.8-1.19,5.46c-0.8,1.66-1.91,2.98-3.34,3.96
		C439.19,325.33,437.55,325.82,435.68,325.82z M434.59,322.75c1.05,0,2-0.22,2.85-0.66c0.85-0.44,1.58-1.03,2.19-1.76
		c0.61-0.73,1.07-1.57,1.4-2.5c0.32-0.93,0.49-1.9,0.49-2.88c0-1.04-0.18-2.03-0.55-2.96c-0.36-0.93-0.88-1.76-1.54-2.48
		c-0.66-0.72-1.43-1.29-2.31-1.7c-0.88-0.41-1.83-0.62-2.85-0.62c-0.65,0-1.32,0.12-2,0.36c-0.69,0.24-1.34,0.58-1.96,1.02
		s-1.15,0.94-1.58,1.5c-0.43,0.56-0.72,1.16-0.85,1.8v5.99c0.41,0.91,0.94,1.73,1.62,2.48c0.67,0.75,1.46,1.34,2.35,1.78
		C432.73,322.53,433.65,322.75,434.59,322.75z"/>
	<path class="st0" d="M460.9,325.82c-1.73,0-3.27-0.43-4.61-1.29c-1.35-0.86-2.42-1.94-3.2-3.25v12.76h-3.56v-29.63h3.16v3.97
		c0.84-1.28,1.93-2.32,3.28-3.11c1.35-0.79,2.82-1.18,4.41-1.18c1.46,0,2.79,0.29,4.01,0.88s2.27,1.39,3.16,2.41
		c0.89,1.02,1.58,2.18,2.08,3.48c0.5,1.3,0.75,2.66,0.75,4.08c0,1.98-0.4,3.8-1.19,5.46c-0.8,1.66-1.91,2.98-3.34,3.96
		C464.41,325.33,462.76,325.82,460.9,325.82z M459.81,322.75c1.05,0,2-0.22,2.85-0.66c0.85-0.44,1.58-1.03,2.19-1.76
		c0.61-0.73,1.07-1.57,1.4-2.5c0.32-0.93,0.49-1.9,0.49-2.88c0-1.04-0.18-2.03-0.55-2.96c-0.36-0.93-0.88-1.76-1.54-2.48
		c-0.66-0.72-1.43-1.29-2.31-1.7s-1.83-0.62-2.85-0.62c-0.65,0-1.32,0.12-2,0.36c-0.69,0.24-1.34,0.58-1.96,1.02
		s-1.15,0.94-1.58,1.5c-0.43,0.56-0.72,1.16-0.85,1.8v5.99c0.41,0.91,0.94,1.73,1.62,2.48c0.67,0.75,1.46,1.34,2.35,1.78
		C457.94,322.53,458.86,322.75,459.81,322.75z"/>
	<path class="st0" d="M484.09,325.82c-1.59,0-3.04-0.29-4.35-0.86c-1.31-0.58-2.44-1.37-3.4-2.37c-0.96-1-1.7-2.16-2.23-3.47
		c-0.53-1.31-0.79-2.71-0.79-4.18c0-1.98,0.46-3.79,1.38-5.42c0.92-1.63,2.19-2.95,3.82-3.94c1.63-0.99,3.5-1.49,5.61-1.49
		c2.13,0,3.99,0.5,5.57,1.51c1.58,1.01,2.81,2.32,3.68,3.94c0.88,1.62,1.32,3.37,1.32,5.25c0,0.27-0.01,0.53-0.02,0.78
		c-0.01,0.25-0.03,0.45-0.06,0.58h-17.53c0.11,1.36,0.49,2.57,1.15,3.62s1.52,1.88,2.57,2.48c1.05,0.6,2.19,0.9,3.4,0.9
		c1.29,0,2.52-0.32,3.66-0.97c1.15-0.65,1.94-1.5,2.37-2.55l3.08,0.85c-0.46,1.03-1.14,1.94-2.04,2.75c-0.9,0.81-1.97,1.44-3.2,1.9
		C486.85,325.59,485.52,325.82,484.09,325.82z M476.97,313.68h14.41c-0.11-1.36-0.5-2.56-1.17-3.6c-0.68-1.04-1.54-1.85-2.59-2.44
		c-1.05-0.59-2.21-0.88-3.48-0.88c-1.24,0-2.39,0.29-3.44,0.88c-1.05,0.59-1.91,1.4-2.57,2.44
		C477.46,311.12,477.07,312.32,476.97,313.68z"/>
	<path class="st0" d="M530.51,325.42h-3.56V313.7c0-2.19-0.36-3.81-1.07-4.85c-0.72-1.04-1.77-1.56-3.18-1.56
		c-1.43,0-2.73,0.51-3.89,1.54c-1.16,1.03-1.98,2.36-2.47,3.99v12.6h-3.56V313.7c0-2.22-0.35-3.84-1.05-4.87
		c-0.7-1.03-1.75-1.54-3.16-1.54c-1.4,0-2.69,0.5-3.87,1.5c-1.17,1-2,2.33-2.49,3.98v12.65h-3.56v-21.01h3.24v4.54
		c0.86-1.55,1.98-2.75,3.36-3.59c1.38-0.84,2.93-1.27,4.65-1.27c1.75,0,3.16,0.48,4.21,1.43c1.05,0.95,1.7,2.18,1.94,3.67
		c0.94-1.66,2.09-2.93,3.44-3.8c1.35-0.87,2.89-1.31,4.61-1.31c1.21,0,2.23,0.22,3.06,0.66c0.82,0.44,1.48,1.06,1.96,1.85
		c0.49,0.79,0.84,1.72,1.05,2.79c0.22,1.07,0.32,2.24,0.32,3.49V325.42z"/>
	<path class="st0" d="M545.41,325.82c-1.59,0-3.04-0.29-4.35-0.86c-1.31-0.58-2.44-1.37-3.4-2.37c-0.96-1-1.7-2.16-2.23-3.47
		s-0.79-2.71-0.79-4.18c0-1.98,0.46-3.79,1.38-5.42c0.92-1.63,2.19-2.95,3.82-3.94c1.63-0.99,3.5-1.49,5.61-1.49
		c2.13,0,3.99,0.5,5.57,1.51c1.58,1.01,2.81,2.32,3.68,3.94c0.88,1.62,1.32,3.37,1.32,5.25c0,0.27-0.01,0.53-0.02,0.78
		c-0.01,0.25-0.03,0.45-0.06,0.58H538.4c0.11,1.36,0.49,2.57,1.15,3.62s1.52,1.88,2.57,2.48c1.05,0.6,2.19,0.9,3.4,0.9
		c1.29,0,2.52-0.32,3.66-0.97c1.15-0.65,1.94-1.5,2.37-2.55l3.08,0.85c-0.46,1.03-1.14,1.94-2.04,2.75c-0.9,0.81-1.97,1.44-3.2,1.9
		C548.17,325.59,546.84,325.82,545.41,325.82z M538.28,313.68h14.41c-0.11-1.36-0.5-2.56-1.17-3.6c-0.68-1.04-1.54-1.85-2.59-2.44
		c-1.05-0.59-2.21-0.88-3.48-0.88c-1.24,0-2.39,0.29-3.44,0.88c-1.05,0.59-1.91,1.4-2.57,2.44
		C538.78,311.12,538.39,312.32,538.28,313.68z"/>
	<path class="st0" d="M578.31,325.42h-3.56V313.7c0-2.22-0.34-3.84-1.03-4.87c-0.69-1.03-1.73-1.54-3.14-1.54
		c-0.97,0-1.94,0.24-2.89,0.72c-0.96,0.48-1.81,1.13-2.55,1.94c-0.74,0.81-1.27,1.75-1.6,2.82v12.65h-3.56v-21.01h3.24v4.54
		c0.57-0.99,1.3-1.85,2.19-2.57c0.89-0.72,1.9-1.29,3.04-1.69c1.13-0.4,2.32-0.6,3.56-0.6c1.21,0,2.23,0.22,3.06,0.66
		c0.82,0.44,1.47,1.06,1.94,1.85c0.47,0.79,0.81,1.72,1.01,2.79c0.2,1.07,0.3,2.24,0.3,3.49V325.42z"/>
	<path class="st0" d="M594.58,324.49c-0.3,0.13-0.7,0.31-1.21,0.53c-0.51,0.22-1.11,0.41-1.78,0.57c-0.68,0.16-1.39,0.24-2.15,0.24
		c-0.86,0-1.66-0.16-2.39-0.47c-0.73-0.31-1.31-0.8-1.74-1.46c-0.43-0.66-0.65-1.49-0.65-2.49V307.2h-2.87v-2.79h2.87v-7.04h3.56
		v7.04h4.74v2.79h-4.74v13.11c0.05,0.76,0.31,1.32,0.77,1.68c0.46,0.36,1,0.55,1.62,0.55c0.7,0,1.35-0.12,1.94-0.36
		c0.59-0.24,0.98-0.42,1.17-0.53L594.58,324.49z"/>
	<path class="st0" d="M109.41,370.38c-0.3,0.13-0.7,0.31-1.21,0.53c-0.51,0.22-1.11,0.41-1.78,0.57c-0.68,0.16-1.39,0.24-2.15,0.24
		c-0.86,0-1.66-0.16-2.39-0.47c-0.73-0.31-1.31-0.8-1.74-1.46c-0.43-0.66-0.65-1.49-0.65-2.49V353.1h-2.87v-2.79h2.87v-7.04h3.56
		v7.04h4.74v2.79h-4.74v13.11c0.05,0.76,0.31,1.32,0.77,1.68c0.46,0.36,1,0.55,1.62,0.55c0.7,0,1.35-0.12,1.94-0.36
		c0.59-0.24,0.98-0.42,1.17-0.53L109.41,370.38z"/>
	<path class="st0" d="M121.67,371.71c-1.59,0-3.04-0.29-4.33-0.86c-1.29-0.58-2.42-1.37-3.36-2.37c-0.94-1-1.67-2.16-2.19-3.47
		c-0.51-1.31-0.77-2.69-0.77-4.14c0-1.47,0.26-2.87,0.77-4.18c0.51-1.31,1.24-2.47,2.19-3.47c0.94-1,2.07-1.79,3.38-2.37
		c1.31-0.58,2.76-0.86,4.35-0.86c1.56,0,2.99,0.29,4.29,0.86c1.29,0.58,2.42,1.37,3.38,2.37c0.96,1,1.69,2.16,2.21,3.47
		c0.51,1.31,0.77,2.71,0.77,4.18c0,1.45-0.26,2.83-0.77,4.14c-0.51,1.31-1.24,2.47-2.19,3.47c-0.94,1-2.07,1.79-3.38,2.37
		C124.71,371.43,123.26,371.71,121.67,371.71z M114.67,360.91c0,1.44,0.32,2.75,0.95,3.93c0.63,1.17,1.48,2.1,2.53,2.78
		c1.05,0.68,2.23,1.02,3.52,1.02c1.3,0,2.48-0.35,3.54-1.04c1.07-0.69,1.92-1.64,2.55-2.82c0.63-1.19,0.95-2.5,0.95-3.95
		c0-1.44-0.32-2.75-0.95-3.93c-0.63-1.17-1.48-2.11-2.55-2.8c-1.07-0.69-2.25-1.04-3.54-1.04c-1.29,0-2.47,0.35-3.52,1.06
		c-1.05,0.71-1.9,1.65-2.53,2.82C114.99,358.12,114.67,359.44,114.67,360.91z"/>
	<path class="st0" d="M136.49,362.9v-12.6h3.56v11.9c0,2.14,0.38,3.75,1.13,4.82c0.75,1.07,1.87,1.61,3.36,1.61
		c0.97,0,1.91-0.21,2.81-0.62c0.9-0.41,1.72-1.01,2.45-1.78c0.73-0.78,1.29-1.7,1.7-2.77V350.3h3.56v16.97
		c0,0.43,0.09,0.74,0.26,0.94c0.17,0.2,0.47,0.31,0.87,0.34v2.75c-0.4,0.05-0.72,0.09-0.95,0.1c-0.23,0.01-0.45,0.02-0.67,0.02
		c-0.68,0-1.26-0.21-1.74-0.62c-0.49-0.42-0.74-0.93-0.77-1.55l-0.08-2.45c-0.92,1.56-2.15,2.76-3.7,3.62
		c-1.55,0.86-3.24,1.29-5.08,1.29c-2.21,0-3.89-0.74-5.02-2.23C137.05,367.99,136.49,365.8,136.49,362.9z"/>
	<path class="st0" d="M172.18,353.3c-1.78,0.03-3.35,0.48-4.72,1.36c-1.36,0.88-2.33,2.08-2.89,3.62v13.03h-3.56V350.3h3.32v4.78
		c0.73-1.46,1.69-2.64,2.89-3.54c1.2-0.9,2.46-1.41,3.78-1.52c0.27,0,0.5,0,0.69,0c0.19,0,0.35,0.01,0.49,0.04V353.3z"/>
	<path class="st0" d="M175.7,346.22v-4.45h3.56v4.45H175.7z M175.7,371.31v-21.13h3.56v21.13H175.7z"/>
	<path class="st0" d="M192.26,371.71c-1.75,0-3.4-0.29-4.94-0.87c-1.54-0.58-2.86-1.45-3.97-2.61l1.38-2.51
		c1.21,1.13,2.43,1.94,3.64,2.43c1.21,0.49,2.46,0.73,3.72,0.73c1.46,0,2.64-0.27,3.56-0.82c0.92-0.55,1.38-1.35,1.38-2.42
		c0-0.78-0.24-1.35-0.71-1.73c-0.47-0.37-1.14-0.69-2-0.94c-0.86-0.25-1.89-0.54-3.08-0.86c-1.46-0.43-2.68-0.88-3.68-1.37
		c-1-0.48-1.75-1.08-2.27-1.81c-0.51-0.72-0.77-1.63-0.77-2.73c0-1.34,0.35-2.47,1.05-3.39c0.7-0.92,1.67-1.63,2.89-2.11
		c1.23-0.48,2.62-0.72,4.19-0.72c1.56,0,2.98,0.24,4.25,0.73c1.27,0.49,2.36,1.2,3.28,2.14l-1.62,2.47
		c-0.84-0.86-1.75-1.5-2.75-1.92c-1-0.42-2.12-0.63-3.36-0.63c-0.73,0-1.44,0.09-2.14,0.26c-0.7,0.17-1.28,0.48-1.74,0.92
		c-0.46,0.44-0.69,1.06-0.69,1.87c0,0.67,0.18,1.2,0.55,1.58c0.36,0.39,0.9,0.72,1.62,0.98c0.71,0.27,1.58,0.56,2.61,0.88
		c1.59,0.46,2.98,0.91,4.15,1.36c1.17,0.46,2.08,1.04,2.73,1.77c0.65,0.72,0.97,1.73,0.97,3.01c0,1.98-0.76,3.53-2.27,4.64
		C196.74,371.16,194.74,371.71,192.26,371.71z"/>
	<path class="st0" d="M215.69,370.38c-0.3,0.13-0.7,0.31-1.21,0.53c-0.51,0.22-1.11,0.41-1.78,0.57c-0.68,0.16-1.39,0.24-2.15,0.24
		c-0.86,0-1.66-0.16-2.39-0.47c-0.73-0.31-1.31-0.8-1.74-1.46c-0.43-0.66-0.65-1.49-0.65-2.49V353.1h-2.87v-2.79h2.87v-7.04h3.56
		v7.04h4.74v2.79h-4.74v13.11c0.05,0.76,0.31,1.32,0.77,1.68c0.46,0.36,1,0.55,1.62,0.55c0.7,0,1.35-0.12,1.94-0.36
		c0.59-0.24,0.98-0.42,1.17-0.53L215.69,370.38z"/>
	<path class="st0" d="M219.01,346.22v-4.45h3.56v4.45H219.01z M219.01,371.31v-21.13h3.56v21.13H219.01z"/>
	<path class="st0" d="M236.41,371.71c-1.4,0-2.69-0.3-3.85-0.88c-1.16-0.59-2.16-1.39-2.99-2.39c-0.84-1-1.48-2.16-1.94-3.47
		c-0.46-1.31-0.69-2.69-0.69-4.14c0-1.47,0.26-2.87,0.77-4.18c0.51-1.31,1.22-2.46,2.13-3.46c0.9-0.99,1.96-1.77,3.18-2.35
		c1.21-0.58,2.52-0.86,3.93-0.86c1.65,0,3.14,0.41,4.49,1.23c1.35,0.82,2.41,1.85,3.2,3.11v-4.01h3.16v29.63h-3.56v-12.76
		C242.28,370.2,239.68,371.71,236.41,371.71z M237.63,368.64c1,0,1.91-0.2,2.73-0.6c0.82-0.4,1.56-0.94,2.21-1.62
		c0.65-0.68,1.2-1.43,1.66-2.26v-6.03c-0.11-0.69-0.38-1.34-0.81-1.94c-0.43-0.6-0.96-1.14-1.58-1.62s-1.29-0.85-2-1.12
		c-0.72-0.27-1.42-0.4-2.13-0.4c-1.05,0-2.01,0.22-2.87,0.66c-0.86,0.44-1.61,1.03-2.25,1.78c-0.63,0.75-1.13,1.59-1.48,2.52
		c-0.35,0.93-0.53,1.9-0.53,2.88c0,1.39,0.3,2.67,0.91,3.85c0.61,1.17,1.44,2.12,2.49,2.82
		C235.04,368.29,236.25,368.64,237.63,368.64z"/>
	<path class="st0" d="M253.33,362.9v-12.6h3.56v11.9c0,2.14,0.38,3.75,1.13,4.82c0.75,1.07,1.87,1.61,3.36,1.61
		c0.97,0,1.91-0.21,2.81-0.62c0.9-0.41,1.72-1.01,2.45-1.78c0.73-0.78,1.29-1.7,1.7-2.77V350.3h3.56v16.97
		c0,0.43,0.09,0.74,0.26,0.94c0.17,0.2,0.47,0.31,0.87,0.34v2.75c-0.4,0.05-0.72,0.09-0.95,0.1c-0.23,0.01-0.45,0.02-0.67,0.02
		c-0.68,0-1.26-0.21-1.74-0.62c-0.49-0.42-0.74-0.93-0.77-1.55l-0.08-2.45c-0.92,1.56-2.15,2.76-3.7,3.62
		c-1.55,0.86-3.24,1.29-5.08,1.29c-2.21,0-3.89-0.74-5.02-2.23C253.9,367.99,253.33,365.8,253.33,362.9z"/>
	<path class="st0" d="M287.21,371.71c-1.59,0-3.04-0.29-4.35-0.86c-1.31-0.58-2.44-1.37-3.4-2.37c-0.96-1-1.7-2.16-2.23-3.47
		c-0.53-1.31-0.79-2.71-0.79-4.18c0-1.98,0.46-3.79,1.38-5.42c0.92-1.63,2.19-2.95,3.82-3.94c1.63-0.99,3.5-1.49,5.61-1.49
		c2.13,0,3.99,0.5,5.57,1.51c1.58,1.01,2.81,2.32,3.68,3.94c0.88,1.62,1.32,3.37,1.32,5.25c0,0.27-0.01,0.53-0.02,0.78
		c-0.01,0.25-0.03,0.45-0.06,0.58h-17.53c0.11,1.36,0.49,2.57,1.15,3.62c0.66,1.05,1.52,1.88,2.57,2.48c1.05,0.6,2.19,0.9,3.4,0.9
		c1.29,0,2.52-0.32,3.66-0.97c1.15-0.65,1.94-1.5,2.37-2.55l3.08,0.85c-0.46,1.03-1.14,1.94-2.04,2.75c-0.9,0.81-1.97,1.44-3.2,1.9
		C289.97,371.48,288.64,371.71,287.21,371.71z M280.08,359.57h14.41c-0.11-1.36-0.5-2.56-1.17-3.6c-0.68-1.04-1.54-1.85-2.59-2.44
		c-1.05-0.59-2.21-0.88-3.48-0.88c-1.24,0-2.39,0.29-3.44,0.88c-1.05,0.59-1.91,1.4-2.57,2.44
		C280.58,357.01,280.19,358.21,280.08,359.57z"/>
	<path class="st0" d="M310.64,360.87c0-1.98,0.41-3.8,1.23-5.44c0.82-1.65,1.96-2.97,3.4-3.96c1.44-0.99,3.1-1.49,4.96-1.49
		c1.7,0,3.22,0.45,4.57,1.34c1.35,0.89,2.4,1.97,3.16,3.24v-12.79h3.56v25.5c0,0.43,0.09,0.75,0.26,0.95
		c0.18,0.2,0.47,0.32,0.87,0.34v2.75c-0.68,0.11-1.2,0.16-1.58,0.16c-0.7,0-1.32-0.24-1.84-0.73c-0.53-0.49-0.79-1.03-0.79-1.62
		v-1.78c-0.84,1.35-1.96,2.42-3.36,3.2c-1.4,0.78-2.86,1.17-4.37,1.17c-1.46,0-2.8-0.29-4.03-0.86c-1.23-0.58-2.29-1.37-3.2-2.39
		c-0.9-1.02-1.61-2.18-2.1-3.48C310.89,363.69,310.64,362.31,310.64,360.87z M327.96,363.95v-6.01c-0.32-0.91-0.85-1.73-1.58-2.46
		c-0.73-0.73-1.55-1.32-2.45-1.76c-0.9-0.44-1.8-0.66-2.69-0.66c-1.05,0-2,0.22-2.85,0.66c-0.85,0.44-1.58,1.03-2.19,1.76
		c-0.61,0.74-1.07,1.57-1.4,2.5c-0.32,0.93-0.49,1.91-0.49,2.92c0,1.04,0.18,2.03,0.55,2.96c0.36,0.93,0.88,1.76,1.54,2.48
		c0.66,0.72,1.43,1.28,2.31,1.68c0.88,0.4,1.83,0.6,2.85,0.6c0.65,0,1.32-0.12,2-0.36c0.69-0.24,1.34-0.57,1.96-1
		c0.62-0.43,1.15-0.93,1.58-1.5C327.55,365.2,327.83,364.59,327.96,363.95z"/>
	<path class="st0" d="M346.83,371.71c-1.59,0-3.04-0.29-4.35-0.86c-1.31-0.58-2.44-1.37-3.4-2.37c-0.96-1-1.7-2.16-2.23-3.47
		s-0.79-2.71-0.79-4.18c0-1.98,0.46-3.79,1.38-5.42c0.92-1.63,2.19-2.95,3.82-3.94c1.63-0.99,3.5-1.49,5.61-1.49
		c2.13,0,3.99,0.5,5.57,1.51c1.58,1.01,2.81,2.32,3.68,3.94c0.88,1.62,1.32,3.37,1.32,5.25c0,0.27-0.01,0.53-0.02,0.78
		c-0.01,0.25-0.03,0.45-0.06,0.58h-17.53c0.11,1.36,0.49,2.57,1.15,3.62c0.66,1.05,1.52,1.88,2.57,2.48c1.05,0.6,2.19,0.9,3.4,0.9
		c1.29,0,2.52-0.32,3.66-0.97c1.15-0.65,1.94-1.5,2.37-2.55l3.08,0.85c-0.46,1.03-1.14,1.94-2.04,2.75c-0.9,0.81-1.97,1.44-3.2,1.9
		C349.58,371.48,348.25,371.71,346.83,371.71z M339.7,359.57h14.41c-0.11-1.36-0.5-2.56-1.17-3.6c-0.68-1.04-1.54-1.85-2.59-2.44
		c-1.05-0.59-2.21-0.88-3.48-0.88c-1.24,0-2.39,0.29-3.44,0.88c-1.05,0.59-1.91,1.4-2.57,2.44
		C340.19,357.01,339.81,358.21,339.7,359.57z"/>
	<path class="st0" d="M371.72,341.76h3.56v24.19c0,1.17,0.16,1.88,0.49,2.15c0.32,0.27,0.71,0.41,1.17,0.41
		c0.57,0,1.11-0.06,1.62-0.18c0.51-0.12,0.94-0.25,1.29-0.38l0.57,2.91c-0.59,0.24-1.29,0.45-2.1,0.61
		c-0.81,0.16-1.52,0.24-2.14,0.24c-1.38,0-2.46-0.39-3.26-1.18c-0.8-0.79-1.19-1.88-1.19-3.29V341.76z"/>
	<path class="st0" d="M381.55,365.24c0-1.34,0.38-2.5,1.15-3.48c0.77-0.98,1.83-1.74,3.18-2.27c1.35-0.54,2.91-0.8,4.7-0.8
		c0.94,0,1.94,0.07,2.99,0.22c1.05,0.15,1.98,0.37,2.79,0.67v-1.53c0-1.6-0.49-2.85-1.46-3.77c-0.97-0.92-2.35-1.38-4.13-1.38
		c-1.16,0-2.27,0.21-3.34,0.63c-1.07,0.42-2.19,1.02-3.38,1.8l-1.3-2.51c1.38-0.94,2.75-1.65,4.13-2.13
		c1.38-0.47,2.81-0.71,4.29-0.71c2.7,0,4.83,0.74,6.4,2.23c1.56,1.48,2.35,3.55,2.35,6.2v8.87c0,0.43,0.09,0.74,0.26,0.94
		c0.17,0.2,0.47,0.31,0.87,0.34v2.75c-0.35,0.05-0.65,0.09-0.91,0.12c-0.26,0.03-0.47,0.04-0.63,0.04c-0.84,0-1.46-0.23-1.88-0.69
		c-0.42-0.46-0.65-0.94-0.71-1.46l-0.08-1.34c-0.92,1.19-2.12,2.1-3.6,2.75c-1.48,0.65-2.95,0.97-4.41,0.97
		c-1.4,0-2.66-0.29-3.76-0.86c-1.11-0.58-1.97-1.35-2.59-2.33C381.86,367.54,381.55,366.45,381.55,365.24z M395.31,366.72
		c0.32-0.37,0.58-0.75,0.77-1.14c0.19-0.39,0.28-0.71,0.28-0.98v-2.61c-0.84-0.32-1.71-0.57-2.63-0.74s-1.82-0.26-2.71-0.26
		c-1.81,0-3.27,0.35-4.39,1.06c-1.12,0.71-1.68,1.68-1.68,2.9c0,0.67,0.18,1.32,0.55,1.94c0.36,0.63,0.9,1.14,1.62,1.54
		c0.71,0.4,1.6,0.6,2.65,0.6c1.11,0,2.16-0.22,3.16-0.66C393.92,367.94,394.72,367.39,395.31,366.72z"/>
	<path class="st0" d="M416.44,371.31v-28.74h18.98v3.24h-15.34v9.59h12.91v3.04h-12.91v12.87H416.44z"/>
	<path class="st0" d="M449.1,353.3c-1.78,0.03-3.35,0.48-4.72,1.36c-1.36,0.88-2.33,2.08-2.89,3.62v13.03h-3.56V350.3h3.32v4.78
		c0.73-1.46,1.69-2.64,2.89-3.54c1.2-0.9,2.46-1.41,3.78-1.52c0.27,0,0.5,0,0.69,0c0.19,0,0.35,0.01,0.49,0.04V353.3z"/>
	<path class="st0" d="M450.96,365.24c0-1.34,0.38-2.5,1.15-3.48c0.77-0.98,1.83-1.74,3.18-2.27c1.35-0.54,2.91-0.8,4.7-0.8
		c0.94,0,1.94,0.07,2.99,0.22c1.05,0.15,1.98,0.37,2.79,0.67v-1.53c0-1.6-0.49-2.85-1.46-3.77c-0.97-0.92-2.35-1.38-4.13-1.38
		c-1.16,0-2.27,0.21-3.34,0.63c-1.07,0.42-2.19,1.02-3.38,1.8l-1.3-2.51c1.38-0.94,2.75-1.65,4.13-2.13
		c1.38-0.47,2.81-0.71,4.29-0.71c2.7,0,4.83,0.74,6.4,2.23c1.56,1.48,2.35,3.55,2.35,6.2v8.87c0,0.43,0.09,0.74,0.26,0.94
		c0.17,0.2,0.47,0.31,0.87,0.34v2.75c-0.35,0.05-0.65,0.09-0.91,0.12c-0.26,0.03-0.47,0.04-0.63,0.04c-0.84,0-1.46-0.23-1.88-0.69
		c-0.42-0.46-0.65-0.94-0.71-1.46l-0.08-1.34c-0.92,1.19-2.12,2.1-3.6,2.75c-1.48,0.65-2.95,0.97-4.41,0.97
		c-1.4,0-2.66-0.29-3.76-0.86c-1.11-0.58-1.97-1.35-2.59-2.33C451.27,367.54,450.96,366.45,450.96,365.24z M464.72,366.72
		c0.32-0.37,0.58-0.75,0.77-1.14c0.19-0.39,0.28-0.71,0.28-0.98v-2.61c-0.84-0.32-1.71-0.57-2.63-0.74s-1.82-0.26-2.71-0.26
		c-1.81,0-3.27,0.35-4.39,1.06c-1.12,0.71-1.68,1.68-1.68,2.9c0,0.67,0.18,1.32,0.55,1.94c0.36,0.63,0.9,1.14,1.62,1.54
		c0.71,0.4,1.6,0.6,2.65,0.6c1.11,0,2.16-0.22,3.16-0.66C463.33,367.94,464.13,367.39,464.72,366.72z"/>
	<path class="st0" d="M493.38,371.31h-3.56V359.6c0-2.22-0.34-3.84-1.03-4.87c-0.69-1.03-1.73-1.54-3.14-1.54
		c-0.97,0-1.94,0.24-2.89,0.72c-0.96,0.48-1.81,1.13-2.55,1.94c-0.74,0.81-1.27,1.75-1.6,2.82v12.65h-3.56V350.3h3.24v4.54
		c0.57-0.99,1.3-1.85,2.19-2.57c0.89-0.72,1.9-1.29,3.04-1.69c1.13-0.4,2.32-0.6,3.56-0.6c1.21,0,2.23,0.22,3.06,0.66
		c0.82,0.44,1.47,1.06,1.94,1.85c0.47,0.79,0.81,1.72,1.01,2.79c0.2,1.07,0.3,2.24,0.3,3.49V371.31z"/>
	<path class="st0" d="M508.27,371.71c-1.59,0-3.04-0.29-4.35-0.86c-1.31-0.58-2.44-1.37-3.4-2.39c-0.96-1.02-1.7-2.18-2.23-3.49
		s-0.79-2.71-0.79-4.18c0-1.98,0.45-3.79,1.34-5.42c0.89-1.63,2.15-2.94,3.76-3.92c1.62-0.98,3.49-1.47,5.63-1.47
		c2.08,0,3.89,0.47,5.44,1.4c1.55,0.93,2.71,2.18,3.46,3.74l-3.48,1.09c-0.54-1-1.29-1.77-2.27-2.33c-0.97-0.55-2.05-0.83-3.24-0.83
		c-1.29,0-2.48,0.33-3.54,1c-1.07,0.67-1.91,1.58-2.53,2.74c-0.62,1.16-0.93,2.49-0.93,3.99c0,1.47,0.32,2.8,0.95,3.99
		c0.63,1.19,1.48,2.13,2.55,2.82c1.07,0.69,2.25,1.04,3.54,1.04c0.84,0,1.64-0.15,2.41-0.45c0.77-0.3,1.44-0.69,2.02-1.19
		c0.58-0.5,0.98-1.05,1.19-1.64l3.48,1.05c-0.43,1.03-1.09,1.94-1.96,2.73c-0.88,0.8-1.92,1.42-3.12,1.88
		C511.02,371.48,509.7,371.71,508.27,371.71z"/>
	<path class="st0" d="M530.49,371.71c-1.59,0-3.04-0.29-4.35-0.86c-1.31-0.58-2.44-1.37-3.4-2.37c-0.96-1-1.7-2.16-2.23-3.47
		s-0.79-2.71-0.79-4.18c0-1.98,0.46-3.79,1.38-5.42c0.92-1.63,2.19-2.95,3.82-3.94c1.63-0.99,3.5-1.49,5.61-1.49
		c2.13,0,3.99,0.5,5.57,1.51c1.58,1.01,2.81,2.32,3.68,3.94c0.88,1.62,1.32,3.37,1.32,5.25c0,0.27-0.01,0.53-0.02,0.78
		c-0.01,0.25-0.03,0.45-0.06,0.58h-17.53c0.11,1.36,0.49,2.57,1.15,3.62c0.66,1.05,1.52,1.88,2.57,2.48c1.05,0.6,2.19,0.9,3.4,0.9
		c1.29,0,2.52-0.32,3.66-0.97c1.15-0.65,1.94-1.5,2.37-2.55l3.08,0.85c-0.46,1.03-1.14,1.94-2.04,2.75c-0.9,0.81-1.97,1.44-3.2,1.9
		C533.25,371.48,531.92,371.71,530.49,371.71z M523.37,359.57h14.41c-0.11-1.36-0.5-2.56-1.17-3.6c-0.68-1.04-1.54-1.85-2.59-2.44
		c-1.05-0.59-2.21-0.88-3.48-0.88c-1.24,0-2.39,0.29-3.44,0.88c-1.05,0.59-1.91,1.4-2.57,2.44
		C523.86,357.01,523.48,358.21,523.37,359.57z"/>
</g>
<g>
	<path class="st0" d="M316.81,52.8v14.76h-29.04v81.79H269.8V67.56h-29.18V52.8H316.81z"/>
	<path class="st0" d="M415.62,101.07c0,7.08-1.18,13.63-3.54,19.66c-2.36,6.03-5.67,11.25-9.95,15.66
		c-4.27,4.41-9.41,7.84-15.42,10.31c-6.01,2.47-12.66,3.71-19.96,3.71s-13.97-1.23-20-3.71s-11.19-5.91-15.49-10.31
		c-4.3-4.41-7.62-9.63-9.98-15.66c-2.36-6.03-3.54-12.58-3.54-19.66c0-7.08,1.18-13.63,3.54-19.66c2.36-6.03,5.68-11.25,9.98-15.66
		c4.3-4.41,9.46-7.84,15.49-10.31c6.03-2.47,12.7-3.71,20-3.71s13.95,1.25,19.96,3.74c6.01,2.49,11.15,5.93,15.42,10.32
		c4.27,4.38,7.59,9.59,9.95,15.62C414.44,87.44,415.62,94,415.62,101.07z M397.19,101.07c0-5.3-0.7-10.05-2.1-14.25
		c-1.4-4.21-3.42-7.78-6.04-10.72c-2.63-2.94-5.82-5.18-9.58-6.74c-3.76-1.56-8-2.34-12.72-2.34c-4.72,0-8.97,0.78-12.75,2.34
		c-3.78,1.56-7,3.81-9.65,6.74c-2.65,2.94-4.69,6.51-6.11,10.72c-1.43,4.21-2.14,8.96-2.14,14.25c0,5.3,0.71,10.05,2.14,14.26
		c1.42,4.21,3.46,7.77,6.11,10.68c2.65,2.92,5.86,5.15,9.65,6.71c3.78,1.56,8.03,2.34,12.75,2.34c4.72,0,8.96-0.78,12.72-2.34
		c3.76-1.56,6.95-3.79,9.58-6.71c2.63-2.91,4.64-6.48,6.04-10.68C396.49,111.12,397.19,106.37,397.19,101.07z"/>
	<path class="st0" d="M468.64,134.86c3.47,0,6.58-0.58,9.31-1.74c2.74-1.16,5.05-2.78,6.94-4.87c1.89-2.09,3.34-4.63,4.34-7.61
		c1-2.98,1.5-6.32,1.5-10.02V52.8h17.96v57.82c0,5.74-0.92,11.05-2.77,15.92s-4.51,9.08-7.98,12.62c-3.47,3.54-7.68,6.3-12.62,8.28
		c-4.94,1.98-10.51,2.97-16.69,2.97c-6.19,0-11.75-0.99-16.69-2.97c-4.94-1.98-9.14-4.74-12.59-8.28c-3.45-3.54-6.1-7.74-7.95-12.62
		c-1.85-4.87-2.77-10.18-2.77-15.92V52.8h17.96v57.75c0,3.69,0.5,7.03,1.5,10.01c1,2.98,2.44,5.53,4.31,7.65
		c1.87,2.11,4.17,3.75,6.91,4.91C462.06,134.28,465.16,134.86,468.64,134.86z"/>
	<path class="st0" d="M595.03,52.8v14.76h-29.04v81.79h-17.96V67.56h-29.18V52.8H595.03z"/>
	<path class="st1" d="M229.19,72.52c-1.85-4.87-4.49-9.08-7.95-12.62c-3.45-3.54-7.64-6.3-12.59-8.28
		c-4.94-1.98-10.5-2.97-16.69-2.97c-6.19,0-11.75,0.99-16.69,2.97c-4.94,1.98-9.15,4.74-12.62,8.28c-3.47,3.54-6.13,7.74-7.98,12.62
		c-1.85,4.87-2.77,10.18-2.77,15.92v36.81c0,4.96,4.02,8.98,8.98,8.98s8.98-4.02,8.98-8.98V88.44c0-3.7,0.5-7.03,1.5-10.02
		c1-2.98,2.45-5.52,4.34-7.61c1.89-2.09,4.21-3.72,6.94-4.87c2.74-1.16,5.84-1.74,9.31-1.74c3.47,0,6.58,0.58,9.31,1.74
		c2.74,1.16,5.04,2.79,6.91,4.91c1.87,2.11,3.31,4.66,4.31,7.65c1,2.98,1.5,6.32,1.5,10.01v6.79c-0.48-0.08-0.97-0.13-1.48-0.13
		h-18.33c-4.89,0-8.85,3.96-8.85,8.85s3.96,8.85,8.85,8.85h18.33c0.5,0,1-0.05,1.48-0.13v29.84c0,4.96,4.02,8.98,8.98,8.98
		s8.98-4.02,8.98-8.98V88.44C231.96,82.7,231.03,77.39,229.19,72.52z"/>
	<path class="st0" d="M106.47,163.83v14.29h-42.8v28.58h36.12v14.36H63.67v39.33H45.57v-96.55H106.47z"/>
	<path class="st0" d="M145.13,222.65v37.72h-17.96v-96.55h29.44c6.59,0,12.23,0.68,16.93,2.04c4.7,1.36,8.55,3.26,11.55,5.71
		c3,2.45,5.21,5.37,6.61,8.78c1.4,3.4,2.1,7.16,2.1,11.25c0,3.25-0.48,6.32-1.44,9.21c-0.96,2.89-2.34,5.52-4.14,7.88
		c-1.8,2.36-4.03,4.43-6.68,6.21c-2.65,1.78-5.67,3.2-9.05,4.27c2.27,1.29,4.23,3.14,5.88,5.54l24.17,35.65h-16.16
		c-1.56,0-2.88-0.31-3.97-0.94c-1.09-0.62-2.01-1.51-2.77-2.67l-20.3-30.91c-0.76-1.16-1.59-1.98-2.5-2.47
		c-0.91-0.49-2.26-0.73-4.04-0.73H145.13z M145.13,209.77h11.22c3.38,0,6.33-0.42,8.85-1.27c2.51-0.85,4.58-2.01,6.21-3.51
		c1.62-1.49,2.84-3.26,3.64-5.31c0.8-2.05,1.2-4.3,1.2-6.74c0-4.9-1.61-8.66-4.84-11.28c-3.23-2.63-8.16-3.94-14.79-3.94h-11.48
		V209.77z"/>
	<path class="st0" d="M336.11,163.93c0.53,0.07,1.01,0.2,1.44,0.4c0.42,0.2,0.83,0.49,1.23,0.87c0.4,0.38,0.84,0.88,1.34,1.5
		l50.68,64.56c-0.18-1.56-0.3-3.08-0.37-4.57c-0.07-1.49-0.1-2.88-0.1-4.17v-58.69h15.82v96.55h-9.28c-1.43,0-2.6-0.22-3.54-0.67
		c-0.94-0.45-1.85-1.25-2.74-2.4l-50.48-64.3c0.13,1.43,0.23,2.84,0.3,4.24c0.07,1.4,0.1,2.68,0.1,3.84v59.29h-15.82v-96.55h9.42
		C334.91,163.83,335.57,163.87,336.11,163.93z"/>
	<path class="st0" d="M502.83,237.61c0.98,0,1.83,0.38,2.54,1.13l7.08,7.68c-3.92,4.85-8.74,8.57-14.46,11.15
		c-5.72,2.58-12.59,3.87-20.6,3.87c-7.17,0-13.61-1.22-19.33-3.67c-5.72-2.45-10.61-5.85-14.66-10.22
		c-4.05-4.36-7.16-9.57-9.31-15.62c-2.16-6.05-3.24-12.66-3.24-19.83c0-7.25,1.2-13.9,3.61-19.93c2.4-6.03,5.78-11.23,10.15-15.59
		c4.36-4.36,9.58-7.76,15.66-10.18c6.08-2.43,12.79-3.64,20.13-3.64c7.17,0,13.43,1.15,18.79,3.44c5.36,2.29,9.96,5.33,13.79,9.11
		l-6.01,8.35c-0.36,0.53-0.81,1-1.37,1.4c-0.56,0.4-1.33,0.6-2.3,0.6c-1.02,0-2.07-0.4-3.14-1.2c-1.07-0.8-2.43-1.67-4.07-2.6
		c-1.65-0.94-3.73-1.8-6.24-2.6c-2.52-0.8-5.71-1.2-9.58-1.2c-4.54,0-8.71,0.79-12.52,2.37c-3.81,1.58-7.08,3.84-9.81,6.78
		c-2.74,2.94-4.87,6.51-6.41,10.72c-1.54,4.21-2.3,8.94-2.3,14.19c0,5.43,0.77,10.26,2.3,14.49c1.54,4.23,3.62,7.79,6.24,10.68
		c2.63,2.89,5.72,5.11,9.28,6.64c3.56,1.54,7.39,2.3,11.48,2.3c2.45,0,4.66-0.13,6.64-0.4c1.98-0.27,3.81-0.69,5.48-1.27
		c1.67-0.58,3.25-1.32,4.74-2.24c1.49-0.91,2.97-2.04,4.44-3.37c0.44-0.4,0.91-0.72,1.4-0.97
		C501.72,237.73,502.26,237.61,502.83,237.61z"/>
	<path class="st0" d="M594.11,163.83v14.29h-42.8v26.77h33.72v13.82h-33.72v27.31h42.8v14.36h-60.89v-96.55H594.11z"/>
	<path class="st1" d="M292.12,184.59c-1.85-4.87-4.49-9.08-7.95-12.62c-3.45-3.54-7.64-6.3-12.59-8.28
		c-4.94-1.98-10.5-2.97-16.69-2.97c-6.19,0-11.75,0.99-16.69,2.97c-4.94,1.98-9.15,4.74-12.62,8.28c-3.47,3.54-6.13,7.74-7.98,12.62
		c-1.85,4.87-2.77,10.18-2.77,15.92v36.81c0,4.96,4.02,8.98,8.98,8.98h0c4.96,0,8.98-4.02,8.98-8.98v-36.81
		c0-3.7,0.5-7.03,1.5-10.02c1-2.98,2.45-5.52,4.34-7.61c1.89-2.09,4.21-3.72,6.94-4.87c2.74-1.16,5.84-1.74,9.31-1.74
		c3.47,0,6.58,0.58,9.31,1.74c2.74,1.16,5.04,2.79,6.91,4.91c1.87,2.11,3.31,4.66,4.31,7.65c1,2.98,1.5,6.32,1.5,10.01v6.79
		c-0.48-0.08-0.97-0.13-1.48-0.13h-18.33c-4.89,0-8.85,3.96-8.85,8.85s3.96,8.85,8.85,8.85h18.33c0.5,0,1-0.05,1.48-0.13v29.84
		c0,4.96,4.02,8.98,8.98,8.98s8.98-4.02,8.98-8.98v-54.13C294.89,194.78,293.97,189.47,292.12,184.59z"/>
</g>
</svg>
