<svg id="Calque_1" data-name="Calque 1" xmlns="http://www.w3.org/2000/svg" viewBox="0 0 579.53 225.02"><defs><style>.cls-1{fill:#1d1d1b;}.cls-2{fill:#878787;}.cls-3,.cls-4{fill:#ce132d;}.cls-3{stroke:#db062b;stroke-miterlimit:10;}</style></defs><path class="cls-1" d="M122.14,200.74,118,212.94h5.47v1.12h-11v-1.12h4l14.09-40.41h1.68l13.6,40.41h4.72v1.12H133.63v-1.12h5.9l-4.16-12.2Zm6.65-19.49-6.21,18.37h12.35Z"/><path class="cls-1" d="M160.32,212.94H165v1.12H150.76v-1.12h4.78V173.65h-4.78v-1.12h9.56Z"/><path class="cls-1" d="M175.59,212.94h4.72v1.12H166v-1.12h4.78V173.65H166v-1.12h9.56Z"/><path class="cls-1" d="M192,212.94h4.1v1.12h-13v-1.12h4.16V191.09H183.1V190H192Zm.5-36.24a3.37,3.37,0,0,1-3.35,3.3,3.33,3.33,0,1,1,3.35-3.3Z"/><path class="cls-1" d="M214,194.45c0-2.74-1.37-4-4.41-4-2.3,0-5.09,1.31-5.09,2.31a1.81,1.81,0,0,0,.43.87,3,3,0,0,1,.81,2,2.3,2.3,0,0,1-2.23,2.49c-1.31,0-2.24-1.12-2.24-2.74,0-3.18,4.22-6,9.07-6a10.44,10.44,0,0,1,6.51,1.93c1.37,1.12,1.93,2.62,1.93,5.23v14c0,1.93.43,2.62,1.67,2.62a2.66,2.66,0,0,0,1.87-.94l.56.75c-2.05,1.5-2.74,1.75-4.23,1.75-2.85,0-4.16-1.44-4.65-5.05-1.93,3.49-4.29,5.05-7.82,5.05-4,0-6.52-2.25-6.52-5.73,0-3.05,2-5.54,5.58-7,2.24-.87,4.29-1.18,8.76-1.3Zm0,7.16c-3.48.12-5,.43-6.83,1.49a5.33,5.33,0,0,0-2.79,4.8c0,2.61,1.61,4.29,4,4.29a5.65,5.65,0,0,0,5-3.67,15.76,15.76,0,0,0,.56-4.86Z"/><path class="cls-1" d="M234.69,193.51c2.54-3,4.78-4.17,8.07-4.17a8.25,8.25,0,0,1,6.27,2.49c1.18,1.37,1.68,2.93,1.68,5.73v15.38h4.09v1.12h-13v-1.12h4.16V195.88c0-3.49-1.31-5.11-4.1-5.11a7,7,0,0,0-6.08,3.8c-.75,1.5-1.06,3.93-1.06,8.41v10h4.1v1.12h-13v-1.12h4.16V191.09h-4.16V190h8.94Z"/><path class="cls-1" d="M280.32,206.22c-.75,2.8-1.31,4-2.55,5.29a9.81,9.81,0,0,1-7.51,3.18c-6.64,0-11.86-5.55-11.86-12.58a12.44,12.44,0,0,1,12.48-12.77c4.84,0,8.38,2.68,8.38,6.29,0,1.75-1,2.93-2.48,2.93s-2.42-1.25-2.42-3a4,4,0,0,1,1.05-2.74c.31-.31.38-.44.38-.62,0-.87-2.36-1.68-4.85-1.68-4.84,0-6.76,2.61-6.76,9.34v3.92c0,3.86.31,5.79,1.11,7.1a5.67,5.67,0,0,0,5,2.55,9,9,0,0,0,6.71-3.05,10.45,10.45,0,0,0,2.05-4.17Z"/><path class="cls-1" d="M289.69,204.66c0,3.67.31,5.23,1.43,6.6a6,6,0,0,0,5,2.18c4.41,0,7.76-2.86,8.63-7.47H306c-.94,5.35-4.72,8.72-9.81,8.72-6.52,0-12.11-5.8-12.11-12.58a13.72,13.72,0,0,1,2.92-8.28,10.54,10.54,0,0,1,8.63-4.49c5.9,0,10.37,4.42,10.61,10.53H289.69Zm10.87-8.59c0-3.86-1.56-5.48-5.22-5.48-3.85,0-5.65,1.93-5.65,6v2.11h10.87Z"/><path class="cls-1" d="M327.12,196.63h-1.05c-.75-3.8-3.29-6-6.95-6-2.92,0-5.28,1.93-5.28,4.36,0,1.55,1.24,2.43,4.78,3.11l2.79.56c4.84,1,7,3.42,7,7.85,0,4.79-3.23,8.22-7.83,8.22-2.54,0-4.22-.69-6.82-3l-1.43,2.36h-.62v-9.21h1a12.43,12.43,0,0,0,1.68,4.79,7.38,7.38,0,0,0,6.39,3.8c3.11,0,5.65-2.18,5.65-4.86,0-2-1.3-3.23-4-3.73l-4.78-1a6.68,6.68,0,0,1-5.77-7,7.18,7.18,0,0,1,7.45-7.47,8.89,8.89,0,0,1,6,2.37l.87-2.24h.8Z"/><path class="cls-2" d="M362.88,184.49h-.81c-1.3-8.1-4.47-11.09-11.3-10.84h-6.95v18.81h3.73c5.46.12,6.64-1.06,6.89-6.85v-1.12h.87V201.3h-.87v-1.37c-.25-4.8-2.05-6.42-7-6.35h-3.66v19.36h5.78v1.12h-17v-1.12h5.4V173.65h-5.4v-1.12h29.42Z"/><path class="cls-2" d="M373.56,196.19a20.74,20.74,0,0,1,1.86-4.11,5.66,5.66,0,0,1,4.78-2.74,3.22,3.22,0,0,1,3.48,3.3c0,1.87-1,3.12-2.42,3.12s-2.11-1-2.18-3.12c-.06-.68-.31-1-.87-1-1.24,0-2.42,1.49-3.41,4.29s-1.24,4.67-1.24,9.78v7.22h4.09v1.12h-13v-1.12h4.16V191.09h-4.16V190h8.94Z"/><path class="cls-2" d="M401,194.45c0-2.74-1.37-4-4.41-4-2.3,0-5.09,1.31-5.09,2.31a1.81,1.81,0,0,0,.43.87,3,3,0,0,1,.81,2,2.3,2.3,0,0,1-2.24,2.49c-1.3,0-2.23-1.12-2.23-2.74,0-3.18,4.22-6,9.06-6a10.45,10.45,0,0,1,6.52,1.93c1.37,1.12,1.93,2.62,1.93,5.23v14c0,1.93.43,2.62,1.67,2.62a2.66,2.66,0,0,0,1.87-.94l.55.75c-2.05,1.5-2.73,1.75-4.22,1.75-2.85,0-4.16-1.44-4.65-5.05-1.93,3.49-4.29,5.05-7.83,5.05-4,0-6.51-2.25-6.51-5.73,0-3.05,2-5.54,5.58-7,2.24-.87,4.29-1.18,8.76-1.3Zm0,7.16c-3.48.12-5,.43-6.83,1.49a5.34,5.34,0,0,0-2.8,4.8c0,2.61,1.62,4.29,4,4.29a5.65,5.65,0,0,0,5-3.67,15.76,15.76,0,0,0,.56-4.86Z"/><path class="cls-2" d="M421.67,193.51c2.54-3,4.78-4.17,8.07-4.17a8.26,8.26,0,0,1,6.27,2.49c1.18,1.37,1.67,2.93,1.67,5.73v15.38h4.1v1.12h-13v-1.12h4.16V195.88c0-3.49-1.3-5.11-4.09-5.11a7,7,0,0,0-6.09,3.8c-.74,1.5-1.05,3.93-1.05,8.41v10h4.09v1.12h-13v-1.12h4.16V191.09h-4.16V190h8.94Z"/><path class="cls-2" d="M455.87,217.55h.87c2.86,0,4.6,1.18,4.6,3.17,0,2.31-2.8,4.3-6,4.3-2.79,0-4.84-1.62-4.84-3.86,0-.62.25-1,.75-1s.8.69.8,2c0,1,0,1.06.44,1.3a4.7,4.7,0,0,0,2.3.56,2.88,2.88,0,0,0,3-2.86c0-1.56-.94-2.49-3.11-3l.93-3.55c-5.89-.87-10.18-6.1-10.18-12.45a12.44,12.44,0,0,1,12.48-12.77c4.84,0,8.38,2.68,8.38,6.29,0,1.75-1,2.93-2.48,2.93s-2.42-1.25-2.42-3a4,4,0,0,1,1.05-2.74c.31-.31.37-.44.37-.62,0-.87-2.35-1.68-4.84-1.68-4.84,0-6.76,2.61-6.76,9.34v3.92c0,3.86.31,5.79,1.11,7.1a5.67,5.67,0,0,0,5,2.55,9,9,0,0,0,6.71-3.05,10.45,10.45,0,0,0,2-4.17h1.25c-.93,3.3-1.68,4.67-3.48,6.16a10,10,0,0,1-6.52,2.31h-.56Z"/><path class="cls-2" d="M484.68,194.45c0-2.74-1.37-4-4.41-4-2.3,0-5.09,1.31-5.09,2.31a1.81,1.81,0,0,0,.43.87,3,3,0,0,1,.81,2,2.3,2.3,0,0,1-2.23,2.49c-1.31,0-2.24-1.12-2.24-2.74,0-3.18,4.22-6,9.06-6a10.45,10.45,0,0,1,6.52,1.93c1.37,1.12,1.93,2.62,1.93,5.23v14c0,1.93.43,2.62,1.67,2.62a2.65,2.65,0,0,0,1.87-.94l.56.75c-2.05,1.5-2.74,1.75-4.23,1.75-2.85,0-4.16-1.44-4.65-5.05-1.93,3.49-4.29,5.05-7.82,5.05-4,0-6.52-2.25-6.52-5.73,0-3.05,2-5.54,5.58-7,2.24-.87,4.29-1.18,8.76-1.3Zm0,7.16c-3.48.12-5,.43-6.83,1.49a5.33,5.33,0,0,0-2.79,4.8c0,2.61,1.61,4.29,4,4.29a5.65,5.65,0,0,0,5-3.67,15.76,15.76,0,0,0,.56-4.86Z"/><path class="cls-2" d="M505.35,212.94h4.1v1.12h-13v-1.12h4.16V191.09h-4.16V190h8.94Zm.5-36.24a3.37,3.37,0,0,1-3.36,3.3,3.33,3.33,0,1,1,3.36-3.3Z"/><path class="cls-2" d="M529.19,196.63h-1.06c-.74-3.8-3.29-6-7-6-2.92,0-5.28,1.93-5.28,4.36,0,1.55,1.24,2.43,4.78,3.11l2.8.56c4.84,1,7,3.42,7,7.85,0,4.79-3.23,8.22-7.82,8.22-2.55,0-4.22-.69-6.83-3l-1.43,2.36h-.62v-9.21h1.06a12.44,12.44,0,0,0,1.67,4.79,7.39,7.39,0,0,0,6.4,3.8c3.1,0,5.65-2.18,5.65-4.86,0-2-1.31-3.23-4-3.73l-4.78-1a6.68,6.68,0,0,1-5.77-7,7.18,7.18,0,0,1,7.45-7.47,8.88,8.88,0,0,1,6,2.37l.87-2.24h.81Z"/><path class="cls-2" d="M540.8,204.66c0,3.67.31,5.23,1.42,6.6a6.07,6.07,0,0,0,5,2.18c4.41,0,7.76-2.86,8.63-7.47h1.24c-.93,5.35-4.72,8.72-9.81,8.72-6.52,0-12.1-5.8-12.1-12.58a13.7,13.7,0,0,1,2.91-8.28,10.55,10.55,0,0,1,8.63-4.49c5.9,0,10.37,4.42,10.62,10.53H540.8Zm10.86-8.59c0-3.86-1.55-5.48-5.21-5.48-3.85,0-5.65,1.93-5.65,6v2.11h10.86Z"/><path class="cls-2" d="M578.23,196.63h-1.06c-.74-3.8-3.29-6-6.95-6-2.92,0-5.28,1.93-5.28,4.36,0,1.55,1.24,2.43,4.78,3.11l2.8.56c4.84,1,7,3.42,7,7.85,0,4.79-3.23,8.22-7.82,8.22-2.55,0-4.22-.69-6.83-3l-1.43,2.36h-.62v-9.21h1.06a12.44,12.44,0,0,0,1.67,4.79,7.39,7.39,0,0,0,6.4,3.8c3.1,0,5.65-2.18,5.65-4.86,0-2-1.31-3.23-4-3.73l-4.78-1a6.68,6.68,0,0,1-5.77-7,7.18,7.18,0,0,1,7.45-7.47,8.88,8.88,0,0,1,6,2.37l.87-2.24h.81Z"/><path class="cls-3" d="M139.3,82a12.1,12.1,0,0,1-.15,1.46c-.11.7-.21,1.46-.32,2.3s-.21,1.67-.31,2.5a15.75,15.75,0,0,0-.16,1.88.7.7,0,0,1-.52.21.61.61,0,0,1-.42-.21,8.54,8.54,0,0,0,.26-1.46c0-.42.06-.83.06-1.25A3.69,3.69,0,0,0,136,84.21a8.76,8.76,0,0,0-4.85-1.15,15.53,15.53,0,0,0-4.55.73,15.76,15.76,0,0,0-4.8,2.61,34.57,34.57,0,0,0-5.12,5,56.22,56.22,0,0,0-5.48,7.93q-1.58,2.73-3.87,7t-4.91,9.14q-2.61,4.86-5.22,9.92t-4.8,9.45c.62,0,1.67,0,3.13-.05s3-.05,4.49-.05h6.79a.82.82,0,0,1,.31,1h-2.08c-1.12,0-2.44,0-4,.06l-4.76.1c-1.63,0-3.11,0-4.43,0q-3.45,6.69-7.26,13.42t-7.63,13q-3.81,6.26-7.52,11.64t-6.84,9.45a176.48,176.48,0,0,1-14.88,17,99.55,99.55,0,0,1-13.42,11.28,52,52,0,0,1-12,6.26A32.39,32.39,0,0,1,11.78,220a17.87,17.87,0,0,1-3.19-.31,10.54,10.54,0,0,1-3.34-1.25,9.5,9.5,0,0,1-2.87-2.67A12.11,12.11,0,0,1,.5,211.21c0-.56.07-.8.21-.73a1.2,1.2,0,0,1,.42.63A5.77,5.77,0,0,0,2,213a9.57,9.57,0,0,0,2.14,2.35,12.5,12.5,0,0,0,3.5,1.93,14.43,14.43,0,0,0,5,.78,39.22,39.22,0,0,0,10.18-1.72,42.87,42.87,0,0,0,11.54-5.69A81.32,81.32,0,0,0,47,199.77a129.46,129.46,0,0,0,13.73-17.28q3.77-5.53,7.47-11.85t7.21-12.54q3.5-6.21,6.58-12c2-3.82,3.91-7.17,5.58-10q-4.48.31-7.1.62a15.16,15.16,0,0,0-4.18,1,5.54,5.54,0,0,0-2.45,2,33.36,33.36,0,0,0-2,3.6l-.31-.1a20.56,20.56,0,0,1,2.92-5.17,6.67,6.67,0,0,1,2.72-2.14q.84-.21,2.25-.42c.94-.14,1.94-.24,3-.31l3.19-.21c1-.07,1.95-.11,2.72-.11q5.22-9.6,10.07-17.8t10.08-16q2.82-4.29,6.06-8.31a66.09,66.09,0,0,1,6.58-7.1,35.31,35.31,0,0,1,6.63-4.91,13,13,0,0,1,6.32-1.83,7.07,7.07,0,0,1,3.66.94A2.65,2.65,0,0,1,139.3,82Z"/><path class="cls-3" d="M131.36,138.94a21.15,21.15,0,0,1-4.33,4.33,9.37,9.37,0,0,1-5.8,1.93,7.6,7.6,0,0,1-3.5-.88,6.74,6.74,0,0,1-2.76-2.67c-.49,1.12-1.12,2.39-1.88,3.81a36.4,36.4,0,0,1-2.72,4.29,26.57,26.57,0,0,1-3.5,3.91,19.41,19.41,0,0,1-4.12,2.93,8.24,8.24,0,0,1-3.14.83c-2.5,0-3.76-1.11-3.76-3.34a12,12,0,0,1,.68-3.86,24.63,24.63,0,0,1,1.73-3.87,36.19,36.19,0,0,1,2.24-3.55,21.5,21.5,0,0,1,2.25-2.71,22,22,0,0,1,5-4.08,14.55,14.55,0,0,1,6.06-2,17,17,0,0,1,.63-1.93,1.9,1.9,0,0,1,1.46-1.31l1-.21a3.71,3.71,0,0,0,.94-.31.58.58,0,0,1,.63-.05c.21.1.24.29.1.57a8.58,8.58,0,0,0-1.09,2.93,18.67,18.67,0,0,0-.37,3.86,9.42,9.42,0,0,0,1.1,4.8,4,4,0,0,0,3.81,1.88,7.62,7.62,0,0,0,4.91-1.77,18.67,18.67,0,0,0,3.65-3.87c.14-.34.37-.45.68-.31S131.64,138.66,131.36,138.94Zm-17.23.73a16.7,16.7,0,0,1-.31-2.19c-.07-.84-.11-1.64-.11-2.41,0-.34-.14-.52-.41-.52a4.59,4.59,0,0,0-2.41.78,13.58,13.58,0,0,0-2.5,2.09,32.72,32.72,0,0,0-2.51,3,35.66,35.66,0,0,0-2.3,3.45,38.8,38.8,0,0,0-2.45,5,11.89,11.89,0,0,0-1,5.06,3.4,3.4,0,0,0,.26,1.36,1.14,1.14,0,0,0,1.2.63,5.89,5.89,0,0,0,3.86-2,31.2,31.2,0,0,0,4-4.64,38.16,38.16,0,0,0,3.19-5.38A16,16,0,0,0,114.13,139.67Z"/><path class="cls-3" d="M155.59,143.22a54.94,54.94,0,0,1-4.33,5.27,40.1,40.1,0,0,1-5.22,4.76,32.43,32.43,0,0,1-5.64,3.44,13,13,0,0,1-5.59,1.36,6.81,6.81,0,0,1-2.3-.37,1.69,1.69,0,0,1-1-1.82,9.38,9.38,0,0,1,1-3.71q1.05-2.25,2.46-4.75t2.92-5.12a46,46,0,0,0,2.46-4.8,1.17,1.17,0,0,0,.05-.89c-.11-.25-.33-.26-.68-.05a29.62,29.62,0,0,0-2.72,2c-1,.84-2.1,1.72-3.18,2.66s-2.13,1.9-3.13,2.88a30.57,30.57,0,0,0-2.46,2.61q-1.66,2.61-2.87,4.8t-3,4.91c-.28.42-.49.63-.62.63-.35,0-.65-.39-.89-1.15a6.72,6.72,0,0,1-.37-1.46,4.75,4.75,0,0,1,1.31-2.56q1.31-1.62,2.87-3.61,1.66-3.33,3.45-7t3-6.63a1,1,0,0,1,.94-.52,1.58,1.58,0,0,1,1.14.52,1.6,1.6,0,0,1,.53,1.15,11.56,11.56,0,0,1-1.52,2.87,50.51,50.51,0,0,0-3,5.69q2-1.77,4.33-3.76c1.57-1.32,3.06-2.54,4.49-3.65s2.68-2,3.76-2.77a5.37,5.37,0,0,1,2.25-1.1,1,1,0,0,1,.78.47,1.53,1.53,0,0,1,.37.89,2.82,2.82,0,0,1-.53,1.26q-1.14,1.67-2.82,4.28t-3.18,5.38a53.54,53.54,0,0,0-2.56,5.27,11.07,11.07,0,0,0-1,4,2.25,2.25,0,0,0,.53,1.72,2.4,2.4,0,0,0,1.67.47,8.81,8.81,0,0,0,4.18-1.36,37.86,37.86,0,0,0,5-3.39,43,43,0,0,0,4.85-4.54,34.37,34.37,0,0,0,3.76-4.81.47.47,0,0,1,.63-.15C156,142.54,155.94,142.8,155.59,143.22Z"/><path class="cls-3" d="M216.17,87.24a1.8,1.8,0,0,1-.63,1.25,3.33,3.33,0,0,0-.83,1.78c-.14.49-.39.73-.73.73a1.34,1.34,0,0,1-.63-.16l-.78-.36a7.09,7.09,0,0,0-1.15-.37,9.44,9.44,0,0,0-1.93-.16,14,14,0,0,0-3.56.47,11.6,11.6,0,0,0-3.23,1.41,38.14,38.14,0,0,0-6.32,5.33,56.61,56.61,0,0,0-6.22,7.52q-7,10-12.27,18.75T169.07,139a105.35,105.35,0,0,0-5.33,11.75A23.85,23.85,0,0,0,162,158a5.1,5.1,0,0,0,.78,2.92,2.86,2.86,0,0,0,2.56,1.15,9.26,9.26,0,0,0,5.38-1.78,26.21,26.21,0,0,0,4.85-4.43,39.06,39.06,0,0,0,4.18-5.91q1.88-3.22,3.24-6.05a.55.55,0,0,1,.68-.32q.47.1-.06.84a80.31,80.31,0,0,1-4,7.15,40.67,40.67,0,0,1-4.49,6,20.67,20.67,0,0,1-4.91,4A10.16,10.16,0,0,1,165.1,163a5.33,5.33,0,0,1-4.18-1.52,5.66,5.66,0,0,1-1.36-3.91,16.36,16.36,0,0,1,1-5.38,59.92,59.92,0,0,1,3.08-7.05q-2.92,3.56-5.12,6a35.32,35.32,0,0,1-3.87,3.76,15.38,15.38,0,0,1-2.87,1.94,5.08,5.08,0,0,1-2.14.57,2.21,2.21,0,0,1-2-.78,3.64,3.64,0,0,1-.53-2,7.91,7.91,0,0,1,.53-2.45,13.25,13.25,0,0,1,1.46-3,41.54,41.54,0,0,1,8.62-10.24,24.8,24.8,0,0,1,11.74-5.22q5-8.78,9.61-15.77t10-13.68a101.2,101.2,0,0,1,8.93-9.92,33.9,33.9,0,0,1,9.14-6.48,15,15,0,0,1,6.16-1.67,5.8,5.8,0,0,1,2,.31Q216.17,86.72,216.17,87.24Zm-47.52,47.94a11.67,11.67,0,0,0-6.11,1.51,16.39,16.39,0,0,0-3.81,3.5,44.72,44.72,0,0,0-5.64,8.41,13.77,13.77,0,0,0-1.67,5.17.75.75,0,0,0,.41.73,1.61,1.61,0,0,0,.63.21c.49,0,1.38-.52,2.66-1.57a36.4,36.4,0,0,0,4.29-4.23,73.09,73.09,0,0,0,4.85-6.21A50.76,50.76,0,0,0,168.65,135.18Z"/><path class="cls-3" d="M214.29,142.38q-2.4,2.93-5.27,5.91a69.62,69.62,0,0,1-5.8,5.37,32,32,0,0,1-5.8,3.87,11.79,11.79,0,0,1-5.27,1.46,3.58,3.58,0,0,1-2.93-1,4.11,4.11,0,0,1-.83-2.62,12.1,12.1,0,0,1,.89-3.91,27.21,27.21,0,0,1,2.66-5.28q-1.37,1.79-3.13,3.76a40,40,0,0,1-3.66,3.61,25.24,25.24,0,0,1-3.76,2.71,6.84,6.84,0,0,1-3.34,1.1,1.94,1.94,0,0,1-2.19-2.19,13.94,13.94,0,0,1,1.88-6.06,31,31,0,0,1,5.06-7,33.88,33.88,0,0,1,7.26-5.85,16.13,16.13,0,0,1,8.46-2.45,5.93,5.93,0,0,1,.94-1.47,3.65,3.65,0,0,1,.83-.62l2.93-.84.21.11a6.33,6.33,0,0,0-1,1.3l-1,1.62c.35,0,.87,0,1.57.1s1.22.14,1.57.21.52.32.52.53a.28.28,0,0,1-.31.31,8.73,8.73,0,0,0-1.88-.31c-.84-.07-1.47-.11-1.88-.11Q196.21,143,194,148t-2.25,7.36a2.57,2.57,0,0,0,.47,1.57,2.32,2.32,0,0,0,1.93.63,8.87,8.87,0,0,0,4-1.2A29.74,29.74,0,0,0,203,153a69.82,69.82,0,0,0,5.38-5,79.07,79.07,0,0,0,5.27-6c.14-.21.28-.26.42-.16A.57.57,0,0,1,214.29,142.38ZM198,134.45a10.93,10.93,0,0,0-6.79,2.5,30.08,30.08,0,0,0-5.75,5.9,37.63,37.63,0,0,0-4,6.74,13.79,13.79,0,0,0-1.51,4.91c0,.56.21.83.63.83a4.26,4.26,0,0,0,1.93-.83,29.12,29.12,0,0,0,3-2.25,35.67,35.67,0,0,0,3.4-3.29,32.85,32.85,0,0,0,3.18-4.07q1.68-2.5,3.24-5.33t2.82-5Z"/><path class="cls-3" d="M232.46,118.57a8.2,8.2,0,0,0-1.88.78,4.16,4.16,0,0,0-1.56,1.42c-1.61,2.22-3.16,4.56-4.65,7s-2.94,4.88-4.34,7.31H233c.21.14.32.28.32.42a.32.32,0,0,1-.21.31c-.56,0-1.39,0-2.51.06s-2.33.08-3.65.15l-4.08.21c-1.39.07-2.61.14-3.65.21a95.36,95.36,0,0,0-4.49,8.88,16.52,16.52,0,0,0-1.57,6.37q0,3.76,3.45,3.76a10.19,10.19,0,0,0,3.81-.89,32.45,32.45,0,0,0,4.54-2.35c.21-.21.42-.19.63.05s.14.44-.21.58a30.69,30.69,0,0,1-6.58,3.34,18.67,18.67,0,0,1-6.16,1,4.59,4.59,0,0,1-2.93-1,4.09,4.09,0,0,1-1.25-3.39,16.61,16.61,0,0,1,1.88-6.16,99,99,0,0,1,5.54-10l-3.08.26c-1.22.11-1.94.16-2.15.16s-.52-.14-.52-.42a5.19,5.19,0,0,1,1.36-1.46l5.33-.11,2.09-3.5,2.29-3.86q1.15-1.93,2.35-3.76c.8-1.22,1.52-2.35,2.14-3.39.77-.35,1.83-.8,3.19-1.36s2.56-1,3.6-1.36a.35.35,0,0,1,.32.26C232.84,118.28,232.74,118.43,232.46,118.57Z"/><path class="cls-3" d="M253,143a47.28,47.28,0,0,1-5.75,6.16,49.28,49.28,0,0,1-5.95,4.7,18.2,18.2,0,0,1-4.28,2.09,12.62,12.62,0,0,1-4,.73,11.67,11.67,0,0,1-1.46-.1,3.87,3.87,0,0,1-1.52-.52A4,4,0,0,1,229,155a3.18,3.18,0,0,1-.47-1.83,9.92,9.92,0,0,1,1-3.71q1-2.34,2.45-4.85t2.82-4.81c.94-1.53,1.69-2.68,2.25-3.44a3.82,3.82,0,0,1,1.83-1.41,5.54,5.54,0,0,1,1.72-.58c.35,0,.52.11.52.32a1.86,1.86,0,0,1-.16.62,1.69,1.69,0,0,1-.36.63q-1.37,2.09-2.77,4.59c-.94,1.68-1.79,3.29-2.56,4.86a38.36,38.36,0,0,0-1.83,4.34,10.34,10.34,0,0,0-.67,3.13,2.29,2.29,0,0,0,.67,1.83,2.76,2.76,0,0,0,1.83.57,9.54,9.54,0,0,0,4.6-1.41,36.43,36.43,0,0,0,5-3.39,49.21,49.21,0,0,0,4.54-4.18,41.54,41.54,0,0,0,3.24-3.76c.35-.35.54-.44.57-.26A1.44,1.44,0,0,1,253,143Zm-4.7-23.29a3.85,3.85,0,0,1-1.1,2.51,3.23,3.23,0,0,1-2.45,1.25,1.11,1.11,0,0,1-1.26-1.25,4.14,4.14,0,0,1,1-2.61,3,3,0,0,1,2.46-1.26A1.21,1.21,0,0,1,248.34,119.72Z"/><path class="cls-3" d="M282.38,138.94a21.15,21.15,0,0,1-4.33,4.33,9.37,9.37,0,0,1-5.8,1.93,7.53,7.53,0,0,1-3.49-.88,6.71,6.71,0,0,1-2.77-2.67c-.49,1.12-1.12,2.39-1.88,3.81a36.4,36.4,0,0,1-2.72,4.29,26.57,26.57,0,0,1-3.5,3.91,19.41,19.41,0,0,1-4.12,2.93,8.24,8.24,0,0,1-3.14.83c-2.5,0-3.76-1.11-3.76-3.34a12,12,0,0,1,.68-3.86,24.63,24.63,0,0,1,1.73-3.87,36.19,36.19,0,0,1,2.24-3.55,21.5,21.5,0,0,1,2.25-2.71,22,22,0,0,1,5-4.08,14.55,14.55,0,0,1,6.06-2,17,17,0,0,1,.63-1.93,1.9,1.9,0,0,1,1.46-1.31l1-.21a3.71,3.71,0,0,0,.94-.31.58.58,0,0,1,.63-.05c.21.1.24.29.1.57a8.58,8.58,0,0,0-1.09,2.93,18.67,18.67,0,0,0-.37,3.86,9.42,9.42,0,0,0,1.1,4.8,4,4,0,0,0,3.81,1.88,7.62,7.62,0,0,0,4.91-1.77,18.67,18.67,0,0,0,3.65-3.87c.14-.34.37-.45.68-.31S282.66,138.66,282.38,138.94Zm-17.23.73a16.7,16.7,0,0,1-.31-2.19c-.07-.84-.11-1.64-.11-2.41,0-.34-.14-.52-.41-.52a4.59,4.59,0,0,0-2.41.78,13.58,13.58,0,0,0-2.5,2.09,32.72,32.72,0,0,0-2.51,3,37.6,37.6,0,0,0-2.3,3.45,38.8,38.8,0,0,0-2.45,5,11.89,11.89,0,0,0-1,5.06,3.4,3.4,0,0,0,.26,1.36,1.14,1.14,0,0,0,1.2.63,5.89,5.89,0,0,0,3.86-2,30.63,30.63,0,0,0,4-4.64,37.23,37.23,0,0,0,3.19-5.38A16,16,0,0,0,265.15,139.67Z"/><path class="cls-3" d="M306.61,143.22a54.94,54.94,0,0,1-4.33,5.27,40.1,40.1,0,0,1-5.22,4.76,32.43,32.43,0,0,1-5.64,3.44,13,13,0,0,1-5.59,1.36,6.81,6.81,0,0,1-2.3-.37,1.69,1.69,0,0,1-1-1.82,9.38,9.38,0,0,1,1-3.71q1.05-2.25,2.46-4.75t2.92-5.12a46,46,0,0,0,2.46-4.8,1.22,1.22,0,0,0,.05-.89c-.11-.25-.33-.26-.68-.05a29.62,29.62,0,0,0-2.72,2c-1,.84-2.1,1.72-3.18,2.66s-2.13,1.9-3.13,2.88a30.57,30.57,0,0,0-2.46,2.61q-1.67,2.61-2.87,4.8t-3,4.91c-.28.42-.49.63-.62.63-.35,0-.65-.39-.89-1.15a6.72,6.72,0,0,1-.37-1.46,4.75,4.75,0,0,1,1.31-2.56q1.31-1.62,2.87-3.61,1.67-3.33,3.45-7t3-6.63a1,1,0,0,1,.94-.52,1.57,1.57,0,0,1,1.14.52,1.6,1.6,0,0,1,.53,1.15,11.56,11.56,0,0,1-1.52,2.87,50.51,50.51,0,0,0-3,5.69q2-1.77,4.33-3.76c1.57-1.32,3.06-2.54,4.49-3.65s2.68-2,3.76-2.77a5.37,5.37,0,0,1,2.25-1.1,1,1,0,0,1,.78.47,1.51,1.51,0,0,1,.36.89,2.77,2.77,0,0,1-.52,1.26q-1.14,1.67-2.82,4.28t-3.18,5.38a53.54,53.54,0,0,0-2.56,5.27,11.07,11.07,0,0,0-1.05,4,2.25,2.25,0,0,0,.53,1.72,2.4,2.4,0,0,0,1.67.47,8.75,8.75,0,0,0,4.17-1.36,37.27,37.27,0,0,0,5-3.39,43,43,0,0,0,4.85-4.54,34.37,34.37,0,0,0,3.76-4.81.47.47,0,0,1,.63-.15C307,142.54,307,142.8,306.61,143.22Z"/><path class="cls-4" d="M420,0c-7.28,0-14.15,3.7-22.29,12C388.5,21.58,381,36.42,376.48,53.81H362.21l-.11.43-.65,2.59-.17.69h14.25c-3.56,13.14-7.94,33.72-9.4,40.57-.27,1.28-.46,2.14-.53,2.47-1,4.27-5,7.25-8.05,7.25s-4.3-2-4.3-6.57V58.77c0-5.92-3.15-11-9.11-14.56a36.4,36.4,0,0,0-18.36-4.8c-16.58,0-25.52,9.22-25.52,17.9,0,5.94,2.95,9.63,7.69,9.63,4.57,0,8-3.16,8-7.36,0-4.52-2-5.82-3.54-6.87-1.09-.72-1.81-1.19-1.81-2.54,0-5.28,10.42-7.06,15.17-7.06,10.52,0,12.73,4.81,12.73,8.85V71.34H336c-6,0-17.38.59-26.9,4.58s-14.5,10.31-14.5,18.67c0,11.21,7.78,17.9,20.81,17.9,11,0,18.1-2.9,23.48-9.66,1.6,5.73,7.47,9.66,14.62,9.66a15.33,15.33,0,0,0,10.34-3.58c-3.07,13.84-5.46,23.86-7.68,30.72-1.88,5.79-4.3,10.08-7.18,12.75-2.68,2.48-4.91,2.75-5.74,2.75-1.87,0-1.87-.8-1.87-1.07,0-.5.3-.82.87-1.39a6.4,6.4,0,0,0,2.2-5.25c0-4.24-3.23-7.2-7.85-7.2-4.91,0-7.85,4.4-7.85,8.66a9.92,9.92,0,0,0,3,6.79,10.2,10.2,0,0,0,7.32,3.17c10.09,0,16.88-4.05,28.22-27.06,5.2-10.51,9.66-26.87,15.31-47.58,2.31-8.47,4.69-17.23,7.42-26.68H407l.09-.45.48-2.6.13-.66h-17L395.6,36c2.86-10.55,11.52-32.33,20-32.33,1.36,0,1.71.15,1.71.74,0,.34-.28.7-.67,1.2a8,8,0,0,0-1.92,5.44c0,4.71,4.24,7.53,8.34,7.53a8.09,8.09,0,0,0,8.33-8C431.44,4.56,426.53,0,420,0ZM338.51,75.05V95.72c0,2.84-5.1,11.77-16.95,11.77-9.43,0-11.27-5.62-11.27-15.33,0-7.48,2.79-12.33,8.52-14.83,5.24-2.28,12.33-2.28,17.5-2.28Z"/><path class="cls-2" d="M80.22,211.46c-1,2.14-2,2.91-3.73,2.91-3,0-5.22-2.66-5.22-6.31s2.16-6.29,5.13-6.29c1.73,0,2.81.78,3.82,2.79V194H77.76v-.56H82.6V213.5h2.07v.56H80.22ZM74.14,209a9.37,9.37,0,0,0,.37,3.41,2.15,2.15,0,0,0,2.07,1.39c2.13,0,3.55-2.26,3.55-5.63s-1.42-5.73-3.64-5.73a2,2,0,0,0-2,1.43,11.11,11.11,0,0,0-.31,3Z"/><path class="cls-2" d="M89.23,209.39c0,1.82.16,2.6.71,3.28a3,3,0,0,0,2.47,1.08A4.26,4.26,0,0,0,96.7,210h.62a4.85,4.85,0,0,1-4.88,4.33,6.24,6.24,0,0,1-6-6.25A6.8,6.8,0,0,1,87.88,204a5.26,5.26,0,0,1,9.56,3H89.23Zm5.4-4.27c0-1.92-.77-2.73-2.59-2.73s-2.81,1-2.81,3v1.06h5.4Z"/><path class="cls-2" d="M107.84,205.39h-.52a3.39,3.39,0,0,0-3.46-3,2.42,2.42,0,0,0-2.62,2.17c0,.77.61,1.21,2.37,1.55l1.39.28c2.41.49,3.49,1.7,3.49,3.9a3.83,3.83,0,0,1-3.89,4.08,4.57,4.57,0,0,1-3.39-1.48l-.71,1.17h-.31v-4.58h.52a6,6,0,0,0,.84,2.38,3.66,3.66,0,0,0,3.17,1.89,2.64,2.64,0,0,0,2.81-2.41c0-1-.64-1.61-2-1.86l-2.38-.49a3.34,3.34,0,0,1-2.87-3.5,3.57,3.57,0,0,1,3.71-3.72,4.4,4.4,0,0,1,3,1.18l.43-1.12h.4Z"/></svg>