<svg width="399" height="277" viewBox="0 0 399 277" xmlns="http://www.w3.org/2000/svg">
  <style>
    .logo-fill-bg {
      fill: #fff;
    }
    .logo-fill-line {
      fill: #3558A2;
    }
  </style>
  <symbol id="logo-fill-bg">
    <path d="M349.213 49.8182H49.7871V227.182H349.213V49.8182Z"/>
  </symbol>
  <symbol id="logo-fill-line">
    <path d="M99.4961 93.265h-6.2893v31.017h6.2893V93.265Zm89.1639 6.6059v-6.5864h-22.325v6.5864h8.008v37.2321h6.309V99.8709h8.008Zm12.696-6.6059h-6.29v31.017h6.29V93.265Zm61.096 32.736V93.265h-6.231v32.932c0 2.306-.586 7.642-6.035 7.642-5.548 0-5.977-5.903-5.977-7.701V93.265h-6.29v33.127c0 8.385 5.059 14.248 12.286 14.248.43 0 .859-.019 1.289-.059l-9.922 43.154h6.68l2.48-12.274h9.259l2.539 12.274h6.875l-10.645-46.574c2.344-2.541 3.692-6.352 3.692-11.16Zm-10.47 39.069 1.583-7.681c.488-2.482 1.172-6.312 1.601-8.658h.313c.41 2.365 1.113 6.235 1.601 8.658l1.582 7.681h-6.68Zm37.678-71.805h-22.325v6.5863h8.008v40.3977h6.309V99.8513h8.008V93.265Z"/>
    <path d="M137.681 162.276c4.414-1.974 6.661-6.079 6.661-12.216 0-7.856-4.278-12.645-11.485-12.957V93.265h-6.172v20.541c0 1.739.039 5.433.078 7.779l-.313.078-.508-1.31c-.664-1.72-1.464-3.752-1.972-4.944l-9.298-22.144h-6.367v43.818H93.2068v46.633h6.2893v-21.128h9.3749v-6.469h-9.3749v-12.508h14.9619v-27.049c0-1.74-.039-5.434-.079-7.779l.313-.078.508 1.329c.664 1.72 1.465 3.733 1.973 4.925l9.238 22.124h-6.641v46.633h6.29v-20.209l4.883.117 6.426 20.111h7.109l-6.973-21.401.176-.058Zm-6.035-5.219h-5.547V143.63h5.547c4.004 0 6.23 2.365 6.23 6.645-.019 4.496-2.109 6.782-6.23 6.782Z"/>
    <path d="M159.284 137.103c2.324-2.365 3.828-5.688 3.828-9.362 0-7.485-5.274-11.433-10.606-15.088-4.942-3.381-6.309-4.73-6.309-8.091 0-2.873 2.168-5.297 4.942-5.297 2.305 0 4.238 1.388 5.664 3.635l4.727-4.0454c-2.149-3.987-5.918-6.3323-10.391-6.3323-6.719 0-11.505 5.8632-11.505 12.2537 0 7.427 4.063 10.281 8.887 13.662 5.743 4.046 7.872 5.863 7.872 9.479 0 3.01-2.344 5.961-5.586 5.961-2.383 0-4.024-1.486-6.758-5.043l-4.942 4.339c2.852 4.984 6.817 7.564 11.778 7.564 2.734 0 5.332-1.056 7.422-2.795l-10.528 45.773h6.68l2.481-12.274h9.258l2.539 12.274h6.856l-10.665-46.633h-5.644v.02Zm-1.016 27.967 1.582-7.681c.488-2.482 1.192-6.312 1.602-8.658h.312c.41 2.365 1.114 6.235 1.602 8.658l1.582 7.681h-6.68Zm40.763-7.446c0 1.739.039 5.453.078 7.798l-.312.078-.508-1.329c-.664-1.72-1.465-3.752-1.973-4.944l-9.297-22.144h-6.367v46.633h6.172v-23.297c0-1.74-.039-5.433-.078-7.779l.312-.078.508 1.31c.664 1.719 1.465 3.752 1.973 4.944l10.41 24.919h5.254v-46.632h-6.172v20.521Zm82.601-5.257h-6.289v31.368h6.289v-31.368Zm19.845 4.104c-4.922-3.381-6.309-4.73-6.309-8.091 0-2.873 2.168-5.297 4.961-5.297 2.305 0 4.238 1.388 5.664 3.635l4.727-4.045c-2.149-3.987-5.918-6.333-10.372-6.333-6.719 0-11.504 5.883-11.504 12.274 0 7.427 4.063 10.28 8.887 13.662 5.723 4.045 7.305 5.746 7.305 9.361 0 3.01-2.324 5.942-5.586 5.942-2.383 0-4.024-1.466-6.758-5.043l-4.942 4.339c2.852 4.984 6.817 7.544 11.778 7.544 6.465 0 12.188-5.824 12.188-13.016 0-7.447-4.707-11.277-10.039-14.932Zm-70.628 14.189c-1.231 5.179-2.637 7.016-5.352 7.016-6.348 0-6.856-13.251-6.856-17.316 0-6.41.84-17.199 6.407-17.199 3.359 0 4.453 2.326 5.234 6.333l.02.117 6.348-1.72-.02-.098c-1.23-7.7-4.941-11.433-11.406-11.433-.821 0-1.602.098-2.344.254V99.8513h8.008V93.265h-22.325v6.5863h8.008v41.1997c-2.871 4.065-4.434 10.671-4.434 19.426 0 12.782 3.203 20.952 9.044 23.297l-1.973 9.694h6.191l1.7-9.127c5.156-.782 8.223-4.534 9.59-11.687l.02-.098-5.86-1.994v.098Z"/>
    <path d="M355.561 233.553H43.4197V43.4468H355.561V233.553Zm-305.7739-6.371H349.213V49.8182H49.7871V227.182Z"/>
  </symbol>
  <use class="logo-fill-bg" href="#logo-fill-bg"/>
  <use class="logo-fill-line" href="#logo-fill-line"/>
</svg>
