<svg width="128" height="128" viewBox="0 0 128 128" fill="none" xmlns="http://www.w3.org/2000/svg">
  <rect width="128" height="128" rx="28" fill="#F4F7FD"/>
  <circle cx="64" cy="64" r="40" fill="white" stroke="#0D2F6F" stroke-width="6"/>
  <ellipse cx="64" cy="64" rx="18" ry="40" stroke="#0D2F6F" stroke-width="4"/>
  <path d="M24 64H104" stroke="#0D2F6F" stroke-width="4"/>
  <path d="M31 46C42 52 54 55 64 55C74 55 86 52 97 46" stroke="#0D2F6F" stroke-width="4" stroke-linecap="round"/>
  <path d="M31 82C42 76 54 73 64 73C74 73 86 76 97 82" stroke="#0D2F6F" stroke-width="4" stroke-linecap="round"/>
  <path d="M66 33L72 48L88 51L76 62L79 78L66 70L53 78L56 62L44 51L60 48L66 33Z" fill="#D71424"/>
</svg>
